<svg width="492" height="137" viewBox="0 0 492 137" fill="none" xmlns="http://www.w3.org/2000/svg">
<rect x="269.25" y="1.25" width="222.5" height="135.5" stroke="#9F9F9F" stroke-width="0.5"/>
<path fill-rule="evenodd" clip-rule="evenodd" d="M333 95C347.359 95 359 83.0941 359 68.5576C359 54.0211 347.359 42 333 42V52C341.975 52 349.25 59.4723 349.25 68.5576C349.25 77.6429 341.975 85.008 333 85.008V95Z" fill="black"/>
<path d="M320 52H333.5V42H320V52Z" fill="black"/>
<path d="M369 42L369 95L379 95L379 42L369 42Z" fill="black"/>
<path d="M420 64V42.4681C416.736 41.5096 413.264 41.5096 410 42.4681V64H420Z" fill="#33FF00"/>
<path fill-rule="evenodd" clip-rule="evenodd" d="M406 43.6306C396.076 47.3627 389 57.0891 389 68.5C389 83.1355 400.641 95 415 95C429.359 95 441 83.1355 441 68.5C441 57.0891 433.924 47.3627 424 43.6306V54.7076C428.371 57.6762 431.25 62.7454 431.25 68.5C431.25 77.6472 423.975 85.0625 415 85.0625C406.025 85.0625 398.75 77.6472 398.75 68.5C398.75 62.7454 401.629 57.6762 406 54.7076V43.6306Z" fill="black"/>
<path d="M320 95H333.5V85H320V95Z" fill="black"/>
<rect width="223" height="136" fill="black"/>
<path fill-rule="evenodd" clip-rule="evenodd" d="M64 95C78.3594 95 90 83.0941 90 68.5576C90 54.0211 78.3594 42 64 42V52C72.9746 52 80.25 59.4723 80.25 68.5576C80.25 77.6429 72.9746 85.008 64 85.008V95Z" fill="white"/>
<path d="M51 52H64.5V42H51V52Z" fill="white"/>
<path d="M100 42L100 95L110 95L110 42L100 42Z" fill="white"/>
<path d="M151 64V42.4681C147.736 41.5096 144.264 41.5096 141 42.4681V64H151Z" fill="#33FF00"/>
<path fill-rule="evenodd" clip-rule="evenodd" d="M137 43.6306C127.076 47.3627 120 57.0891 120 68.5C120 83.1355 131.641 95 146 95C160.359 95 172 83.1355 172 68.5C172 57.0891 164.924 47.3627 155 43.6306V54.7076C159.371 57.6762 162.25 62.7454 162.25 68.5C162.25 77.6472 154.975 85.0625 146 85.0625C137.025 85.0625 129.75 77.6472 129.75 68.5C129.75 62.7454 132.629 57.6762 137 54.7076V43.6306Z" fill="white"/>
<path d="M51 95H64.5V85H51V95Z" fill="white"/>
</svg>
