<svg width="492" height="137" viewBox="0 0 492 137" fill="none" xmlns="http://www.w3.org/2000/svg">
<rect x="269.25" y="1.25" width="222.5" height="135.5" stroke="#9F9F9F" stroke-width="0.5"/>
<path fill-rule="evenodd" clip-rule="evenodd" d="M333 95.2508C347.359 95.2508 359 83.3449 359 68.8084C359 54.2719 347.359 42.2508 333 42.2508V52.2508C341.975 52.2508 349.25 59.7231 349.25 68.8084C349.25 77.8937 341.975 85.2588 333 85.2588V95.2508Z" fill="black"/>
<path d="M320 52.2508H333.5V42.2508H320V52.2508Z" fill="black"/>
<path d="M369 42.2508L369 95.2508L379 95.2508L379 42.2508L369 42.2508Z" fill="black"/>
<path d="M420 64.2508V42.7189C416.736 41.7604 413.264 41.7604 410 42.7189V64.2508H420Z" fill="black"/>
<path fill-rule="evenodd" clip-rule="evenodd" d="M406 43.8814C396.076 47.6135 389 57.3399 389 68.7508C389 83.3863 400.641 95.2508 415 95.2508C429.359 95.2508 441 83.3863 441 68.7508C441 57.3399 433.924 47.6135 424 43.8814V54.9584C428.371 57.927 431.25 62.9961 431.25 68.7508C431.25 77.898 423.975 85.3133 415 85.3133C406.025 85.3133 398.75 77.898 398.75 68.7508C398.75 62.9961 401.629 57.927 406 54.9584V43.8814Z" fill="black"/>
<path d="M320 95.2508H333.5V85.2508H320V95.2508Z" fill="black"/>
<rect width="223" height="136" fill="black"/>
<path fill-rule="evenodd" clip-rule="evenodd" d="M64 95.2508C78.3594 95.2508 90 83.3449 90 68.8084C90 54.2719 78.3594 42.2508 64 42.2508V52.2508C72.9746 52.2508 80.25 59.7231 80.25 68.8084C80.25 77.8937 72.9746 85.2588 64 85.2588V95.2508Z" fill="white"/>
<path d="M51 52.2508H64.5V42.2508H51V52.2508Z" fill="white"/>
<path d="M100 42.2508L100 95.2508L110 95.2508L110 42.2508L100 42.2508Z" fill="white"/>
<path d="M151 64.2508V42.7189C147.736 41.7604 144.264 41.7604 141 42.7189V64.2508H151Z" fill="white"/>
<path fill-rule="evenodd" clip-rule="evenodd" d="M137 43.8814C127.076 47.6135 120 57.3399 120 68.7508C120 83.3863 131.641 95.2508 146 95.2508C160.359 95.2508 172 83.3863 172 68.7508C172 57.3399 164.924 47.6135 155 43.8814V54.9584C159.371 57.927 162.25 62.9961 162.25 68.7508C162.25 77.898 154.975 85.3133 146 85.3133C137.025 85.3133 129.75 77.898 129.75 68.7508C129.75 62.9961 132.629 57.927 137 54.9584V43.8814Z" fill="white"/>
<path d="M51 95.2508H64.5V85.2508H51V95.2508Z" fill="white"/>
</svg>
