<svg width="492" height="300" viewBox="0 0 492 300" fill="none" xmlns="http://www.w3.org/2000/svg">
<rect x="0.25" y="0.25" width="491.5" height="299.5" stroke="#9F9F9F" stroke-width="0.5"/>
<path d="M128.029 117.465H157.809V95.4061H128.029V117.465Z" fill="black"/>
<path d="M127.879 95.5562V212.168H99.503V95.5562H127.879Z" stroke="#FF0000" stroke-width="0.3"/>
<path d="M156.706 212.318V95.4062" stroke="#FF0000" stroke-width="0.3"/>
<path d="M236.118 95.4061L236.118 212.318L258.176 212.318L258.176 95.4061L236.118 95.4061Z" fill="black"/>
<path d="M235.968 212.168L214.209 212.168L214.209 95.5561L235.968 95.5561L235.968 212.168Z" stroke="#FF0000" stroke-width="0.3"/>
<path d="M280.085 212.168L258.326 212.168L258.327 95.5561L280.085 95.5561L280.085 212.168Z" stroke="#FF0000" stroke-width="0.3"/>
<path d="M128.029 212.318H157.809V190.259H128.029V212.318Z" fill="black"/>
<path fill-rule="evenodd" clip-rule="evenodd" d="M337.588 212.318C369.263 212.318 394.941 186.146 394.941 153.862C394.941 121.578 369.263 95.4061 337.588 95.4061V117.327C357.385 117.327 373.434 133.684 373.434 153.862C373.434 174.04 357.385 190.397 337.588 190.397V212.318Z" fill="black"/>
<path fill-rule="evenodd" clip-rule="evenodd" d="M337.588 95.4062C305.913 95.4062 280.235 121.578 280.235 153.862C280.235 186.146 305.913 212.318 337.588 212.318L337.588 190.397C317.791 190.397 301.743 174.04 301.743 153.862C301.743 133.684 317.791 117.327 337.588 117.327L337.588 95.4062Z" fill="black"/>
<path d="M99.503 153.862C99.503 121.709 125.035 95.6388 156.556 95.5564L156.556 117.177C136.742 117.26 120.71 133.655 120.71 153.862C120.71 174.069 136.742 190.464 156.556 190.547L156.556 212.168C125.035 212.085 99.503 186.015 99.503 153.862Z" stroke="#FF0000" stroke-width="0.3"/>
<path fill-rule="evenodd" clip-rule="evenodd" d="M156.706 212.318C188.381 212.318 214.059 186.055 214.059 153.989C214.059 121.923 188.381 95.4061 156.706 95.4061V117.465C176.503 117.465 192.552 133.948 192.552 153.989C192.552 174.03 176.503 190.277 156.706 190.277L156.706 212.318Z" fill="black"/>
<path d="M349 144V96.5831C341.492 94.4723 333.508 94.4723 326 96.5831V144H349Z" fill="#33FF00"/>
<path fill-rule="evenodd" clip-rule="evenodd" d="M357.441 89.8334V152.759H317.735V89.8334L324.073 87.9726C332.897 85.3817 342.28 85.3817 351.103 87.9726L357.441 89.8334ZM349 143.936H326V96.5C333.201 94.3857 341.799 94.3244 349 96.4387V143.936Z" fill="white"/>
<path d="M348.85 211.85L326.15 211.85L326.15 95.15L348.85 95.15L348.85 211.85Z" stroke="#FF0000" stroke-width="0.3"/>
</svg>
