<svg width="173" height="105" viewBox="0 0 173 105" fill="none" xmlns="http://www.w3.org/2000/svg">
<rect x="0.25" y="79.25" width="172.5" height="25.5" stroke="#00F0FF" stroke-width="0.5"/>
<rect x="147.25" y="104.75" width="104.5" height="25.5" transform="rotate(-90 147.25 104.75)" stroke="#00F0FF" stroke-width="0.5"/>
<rect x="0.25" y="104.75" width="104.5" height="25.5" transform="rotate(-90 0.25 104.75)" stroke="#00F0FF" stroke-width="0.5"/>
<rect x="0.25" y="0.25" width="172.5" height="25.5" stroke="#00F0FF" stroke-width="0.5"/>
<path fill-rule="evenodd" clip-rule="evenodd" d="M121 79.0001C135.359 79.0001 147 67.1357 147 52.5001C147 37.8646 135.359 26.0001 121 26.0001V35.9376C129.975 35.9376 137.25 43.3529 137.25 52.5001C137.25 61.6473 129.975 69.0626 121 69.0626V79.0001Z" fill="black"/>
<path fill-rule="evenodd" clip-rule="evenodd" d="M121 26.0001C106.641 26.0001 95.0001 37.8646 95.0001 52.5001C95.0001 67.1357 106.641 79.0001 121 79.0001L121 69.0626C112.025 69.0626 104.75 61.6473 104.75 52.5001C104.75 43.3529 112.025 35.9376 121 35.9376L121 26.0001Z" fill="black"/>
<path d="M147.25 52.5001C147.25 38.0832 158.648 26.3881 172.75 26.2513L172.75 35.6895C163.748 35.8257 156.5 43.3043 156.5 52.5001C156.5 61.6959 163.748 69.1745 172.75 69.3107L172.75 78.7489C158.648 78.6121 147.25 66.917 147.25 52.5001Z" stroke="#0500FF" stroke-width="0.5"/>
<path d="M81.5 25.75C67.0831 25.75 55.388 14.3518 55.2512 0.249998L64.6894 0.249998C64.8256 9.25175 72.3042 16.5 81.5 16.5C90.6958 16.5 98.1744 9.25175 98.3106 0.25L107.749 0.25C107.612 14.3518 95.9169 25.75 81.5 25.75Z" stroke="#0500FF" stroke-width="0.5"/>
<path d="M81.5 79.25C95.9169 79.25 107.612 90.6482 107.749 104.75L98.3106 104.75C98.1744 95.7483 90.6958 88.5 81.5 88.5C72.3042 88.5 64.8256 95.7483 64.6894 104.75L55.2512 104.75C55.388 90.6482 67.0831 79.25 81.5 79.25Z" stroke="#0500FF" stroke-width="0.5"/>
<path d="M25.75 52C25.75 66.4169 14.3518 78.112 0.25 78.2488L0.25 68.8106C9.25175 68.6744 16.5 61.1958 16.5 52C16.5 42.8042 9.25175 35.3256 0.25 35.1894L0.25 25.7512C14.3518 25.888 25.75 37.5831 25.75 52Z" stroke="#0500FF" stroke-width="0.5"/>
<path fill-rule="evenodd" clip-rule="evenodd" d="M39.0001 79.0001C53.3595 79.0001 65.0001 67.0942 65.0001 52.5577C65.0001 38.0212 53.3595 26.0001 39.0001 26.0001V36.0001C47.9747 36.0001 55.2501 43.4724 55.2501 52.5577C55.2501 61.643 47.9747 69.0081 39.0001 69.0081V79.0001Z" fill="black"/>
<path d="M26.0001 36.0001H39.5001V26.0001H26.0001V36.0001Z" fill="black"/>
<path d="M75.0001 26.0001L75.0001 79.0001L85.0001 79.0001L85.0001 26.0001L75.0001 26.0001Z" fill="black"/>
<path d="M126 48.0001V26.4682C122.736 25.5097 119.265 25.5097 116 26.4682V48.0001H126Z" fill="#33FF00"/>
<path fill-rule="evenodd" clip-rule="evenodd" d="M130 23.4738V52.0001H112V23.4738L114.873 22.6302C118.873 21.4557 123.127 21.4557 127.127 22.6302L130 23.4738ZM126 48.0001H116V26.4682C119.265 25.5097 122.736 25.5097 126 26.4682V48.0001Z" fill="white"/>
<path d="M26.0001 79.0001H39.5001V69.0001H26.0001V79.0001Z" fill="black"/>
</svg>
