<svg width="223" height="136" viewBox="0 0 223 136" fill="none" xmlns="http://www.w3.org/2000/svg">
<rect x="0.25" y="0.25" width="222.5" height="135.5" fill="#EFE6E6" stroke="#FF0000" stroke-width="0.5"/>
<path fill-rule="evenodd" clip-rule="evenodd" d="M152.233 86.3462C166.103 82.6297 174.277 68.1567 170.489 54.0198C166.701 39.883 152.386 31.4356 138.516 35.1521L141.088 44.751C149.757 42.4282 158.703 47.7078 161.071 56.5433C163.438 65.3789 158.33 74.4245 149.661 76.7473L152.233 86.3462Z" fill="#30F100"/>
<path fill-rule="evenodd" clip-rule="evenodd" d="M138.516 35.1521C124.646 38.8686 116.473 53.3416 120.26 67.4785C124.048 81.6153 138.363 90.0627 152.233 86.3462L149.661 76.7473C140.992 79.0701 132.046 73.7905 129.678 64.955C127.311 56.1194 132.419 47.0738 141.088 44.751L138.516 35.1521Z" fill="#30F100"/>
<path fill-rule="evenodd" clip-rule="evenodd" d="M73.0273 107.569C86.8974 103.853 95.0599 89.3398 91.2976 75.2986C87.5353 61.2574 73.18 52.6588 59.3099 56.3752L61.8981 66.0345C70.5669 63.7117 79.5284 69.0464 81.8798 77.8221C84.2313 86.5978 79.11 95.595 70.4412 97.9178L73.0273 107.569Z" fill="#30F100"/>
<path d="M49.3411 69.3991L62.3811 65.9051L59.7929 56.2458L46.7529 59.7399L49.3411 69.3991Z" fill="#30F100"/>
<path d="M98.9129 45.7636C96.2456 46.4783 94.6626 49.22 95.3774 51.8873L106.507 93.4221C107.221 96.0894 109.963 97.6724 112.63 96.9576C115.298 96.2429 116.881 93.5013 116.166 90.8339L105.037 49.2991C104.322 46.6318 101.58 45.0489 98.9129 45.7636Z" fill="#30F100"/>
<path d="M149.039 55.1083L143.467 34.3101C140.065 34.2292 136.712 35.1276 133.807 36.8983L139.38 57.6965L149.039 55.1083Z" fill="#0019FF"/>
<path fill-rule="evenodd" clip-rule="evenodd" d="M146.555 30.3824L153.938 57.9367L136.552 62.5955L129.169 35.0412L131.726 33.4827C135.285 31.3129 139.394 30.212 143.562 30.3112L146.555 30.3824ZM149.039 55.1083L139.38 57.6965L133.807 36.8982C136.712 35.1275 140.065 34.2291 143.467 34.3101L149.039 55.1083Z" fill="#EFE6E6"/>
<path d="M60.4703 110.934L73.5103 107.44L70.9221 97.7806L57.8821 101.275L60.4703 110.934Z" fill="#30F100"/>
</svg>
