<svg width="223" height="136" viewBox="0 0 223 136" fill="none" xmlns="http://www.w3.org/2000/svg">
<rect x="0.25" y="0.25" width="222.5" height="135.5" fill="#EFE6E6" stroke="#FF0000" stroke-width="0.5"/>
<rect x="13" y="24" width="186" height="88" rx="44" fill="white"/>
<path fill-rule="evenodd" clip-rule="evenodd" d="M62 94C76.3594 94 88 82.0941 88 67.5576C88 53.0211 76.3594 41 62 41V51C70.9746 51 78.25 58.4723 78.25 67.5576C78.25 76.6429 70.9746 84.008 62 84.008V94Z" fill="black"/>
<path d="M49 51H62.5V41H49V51Z" fill="black"/>
<path d="M98 41L98 94L108 94L108 41L98 41Z" fill="black"/>
<path d="M149 63V41.4681C145.736 40.5096 142.264 40.5096 139 41.4681V63H149Z" fill="#33FF00"/>
<path fill-rule="evenodd" clip-rule="evenodd" d="M134.346 43C124.804 46.7052 118 56.3617 118 67.6906C118 82.2209 129.193 94 143 94C156.807 94 168 82.2209 168 67.6906C168 56.3617 161.196 46.7052 151.654 43V53.9974C155.856 56.9446 158.625 61.9773 158.625 67.6906C158.625 76.772 151.629 84.134 143 84.134C134.371 84.134 127.375 76.772 127.375 67.6906C127.375 61.9773 130.144 56.9446 134.346 53.9974V43Z" fill="black"/>
<path d="M49 94H62.5V84H49V94Z" fill="black"/>
</svg>
