<svg width="576" height="367" viewBox="0 0 576 367" fill="none" xmlns="http://www.w3.org/2000/svg">
<path d="M0 194H74V268H0V194Z" fill="black"/>
<path fill-rule="evenodd" clip-rule="evenodd" d="M275.26 194.74H202.74V267.26H275.26V194.74ZM202 194V268H276V194H202Z" fill="#9F9F9F"/>
<path d="M100 194H174V268H100V194Z" fill="#30F100"/>
<path d="M394 194H468V268H394V194Z" fill="#00F0FF"/>
<path d="M502 194H576V268H502V194Z" fill="#0019FF"/>
<path d="M11.3828 299.583V298.579H8.86325L9.27425 295.11H8.3093L7.8983 298.579H4.21719L4.64606 295.11H3.66324L3.25224 298.579H0.571823V299.583H3.12715L2.66255 303.417H0V304.421H2.53746L2.12647 307.89H3.09142L3.52028 304.421H7.18352L6.77252 307.89H7.73747L8.14847 304.421H10.811V303.417H8.27356L8.73816 299.583H11.3828ZM7.30861 303.417H3.6275L4.10997 299.583H7.77321L7.30861 303.417Z" fill="black"/>
<path d="M17.8389 308C20.7337 308 22.8423 305.572 22.8423 301.5C22.8423 297.428 20.7337 295 17.8389 295C14.944 295 12.8533 297.428 12.8533 301.5C12.8533 305.572 14.944 308 17.8389 308ZM17.8389 306.795C15.6588 306.795 14.1578 304.914 14.1578 301.5C14.1578 298.086 15.6588 296.205 17.8389 296.205C20.019 296.205 21.52 298.086 21.52 301.5C21.52 304.914 20.019 306.795 17.8389 306.795Z" fill="black"/>
<path d="M29.6704 308C32.5653 308 34.6739 305.572 34.6739 301.5C34.6739 297.428 32.5653 295 29.6704 295C26.7756 295 24.6848 297.428 24.6848 301.5C24.6848 305.572 26.7756 308 29.6704 308ZM29.6704 306.795C27.4903 306.795 25.9893 304.914 25.9893 301.5C25.9893 298.086 27.4903 296.205 29.6704 296.205C31.8505 296.205 33.3515 298.086 33.3515 301.5C33.3515 304.914 31.8505 306.795 29.6704 306.795Z" fill="black"/>
<path d="M41.502 308C44.3968 308 46.5054 305.572 46.5054 301.5C46.5054 297.428 44.3968 295 41.502 295C38.6071 295 36.5164 297.428 36.5164 301.5C36.5164 305.572 38.6071 308 41.502 308ZM41.502 306.795C39.3219 306.795 37.8208 304.914 37.8208 301.5C37.8208 298.086 39.3219 296.205 41.502 296.205C43.682 296.205 45.1831 298.086 45.1831 301.5C45.1831 304.914 43.682 306.795 41.502 306.795Z" fill="black"/>
<path d="M53.3335 308C56.2283 308 58.3369 305.572 58.3369 301.5C58.3369 297.428 56.2283 295 53.3335 295C50.4386 295 48.3479 297.428 48.3479 301.5C48.3479 305.572 50.4386 308 53.3335 308ZM53.3335 306.795C51.1534 306.795 49.6524 304.914 49.6524 301.5C49.6524 298.086 51.1534 296.205 53.3335 296.205C55.5136 296.205 57.0146 298.086 57.0146 301.5C57.0146 304.914 55.5136 306.795 53.3335 306.795Z" fill="black"/>
<path d="M65.165 308C68.0599 308 70.1685 305.572 70.1685 301.5C70.1685 297.428 68.0599 295 65.165 295C62.2702 295 60.1794 297.428 60.1794 301.5C60.1794 305.572 62.2702 308 65.165 308ZM65.165 306.795C62.9849 306.795 61.4839 304.914 61.4839 301.5C61.4839 298.086 62.9849 296.205 65.165 296.205C67.3451 296.205 68.8461 298.086 68.8461 301.5C68.8461 304.914 67.3451 306.795 65.165 306.795Z" fill="black"/>
<path d="M76.9966 308C79.8914 308 82 305.572 82 301.5C82 297.428 79.8914 295 76.9966 295C74.1017 295 72.011 297.428 72.011 301.5C72.011 305.572 74.1017 308 76.9966 308ZM76.9966 306.795C74.8165 306.795 73.3154 304.914 73.3154 301.5C73.3154 298.086 74.8165 296.205 76.9966 296.205C79.1766 296.205 80.6777 298.086 80.6777 301.5C80.6777 304.914 79.1766 306.795 76.9966 306.795Z" fill="black"/>
<path d="M90.5293 161C94.2553 161 97.0408 158.455 97.0408 155C97.0408 151.545 94.2553 149 90.5293 149C86.7679 149 84 151.562 84 155C84 158.438 86.7679 161 90.5293 161ZM90.5293 159.888C87.5308 159.888 85.2952 157.815 85.2952 155C85.2952 152.185 87.5308 150.112 90.5293 150.112C93.5101 150.112 95.7279 152.185 95.7279 155C95.7279 157.815 93.5101 159.888 90.5293 159.888Z" fill="#9F9F9F"/>
<path d="M103.776 160.983C105.355 160.983 106.685 160.376 107.431 159.23L106.49 158.624C105.852 159.517 104.858 159.921 103.776 159.921C101.735 159.921 100.245 158.556 100.245 156.466C100.245 154.393 101.735 153.011 103.776 153.011C104.858 153.011 105.852 153.433 106.49 154.326L107.431 153.719C106.685 152.556 105.355 151.966 103.776 151.966C100.99 151.966 98.9674 153.82 98.9674 156.466C98.9674 159.112 100.99 160.983 103.776 160.983Z" fill="#9F9F9F"/>
<path d="M109.87 160.899H111.13V156.989H117.002V160.899H118.262V152.034H117.002V155.961H111.13V152.034H109.87V160.899Z" fill="#9F9F9F"/>
<path d="M125.693 160.983C128.425 160.983 130.43 159.096 130.43 156.466C130.43 153.837 128.425 151.966 125.693 151.966C122.96 151.966 120.938 153.837 120.938 156.466C120.938 159.096 122.96 160.983 125.693 160.983ZM125.693 159.921C123.706 159.921 122.215 158.539 122.215 156.466C122.215 154.393 123.706 153.011 125.693 153.011C127.68 153.011 129.153 154.393 129.153 156.466C129.153 158.539 127.68 159.921 125.693 159.921Z" fill="#9F9F9F"/>
<path d="M139.066 156.315C140.042 155.978 140.645 155.303 140.645 154.309C140.645 152.843 139.35 152.034 137.239 152.034H133.122V160.899H137.363C139.794 160.899 140.965 160.022 140.965 158.489C140.965 157.326 140.361 156.601 139.066 156.315ZM134.347 152.978H137.15C138.587 152.978 139.386 153.466 139.386 154.461C139.386 155.455 138.587 155.978 137.15 155.978H134.347V152.978ZM137.31 159.955H134.347V156.871H137.434C139.013 156.871 139.723 157.36 139.723 158.421C139.723 159.483 138.889 159.955 137.31 159.955Z" fill="#9F9F9F"/>
<path d="M143.917 160.899H145.177V156.989H151.05V160.899H152.309V152.034H151.05V155.961H145.177V152.034H143.917V160.899Z" fill="#9F9F9F"/>
<path d="M159.811 155.169L157.15 155.135V152.034H155.89V160.899L159.58 160.916C162.047 160.949 163.413 159.888 163.413 158C163.413 156.18 162.153 155.185 159.811 155.169ZM164.974 160.899H166.234V152.034H164.974V160.899ZM159.509 160.006L157.15 159.972V156.028L159.509 156.062C161.248 156.079 162.135 156.685 162.135 158C162.135 159.331 161.23 160.022 159.509 160.006Z" fill="#9F9F9F"/>
<path d="M178 156.466C178 153.803 176.102 151.966 173.476 151.966C170.85 151.966 168.916 153.837 168.916 156.466C168.916 159.096 170.903 160.983 173.813 160.983C175.285 160.983 176.581 160.478 177.414 159.534L176.705 158.758C175.995 159.534 174.984 159.921 173.848 159.921C171.808 159.921 170.317 158.691 170.175 156.837H177.982C177.982 156.702 178 156.567 178 156.466ZM173.476 152.994C175.303 152.994 176.634 154.208 176.794 155.944H170.175C170.335 154.208 171.666 152.994 173.476 152.994Z" fill="#9F9F9F"/>
<path d="M415.494 160.132V149H407.083L406.94 152.973C406.816 156.876 406.424 160.027 404.642 160.132H404.018L404 164H405.23L405.247 161.252H416.135V164H417.365V160.132H415.494ZM408.116 153.096L408.223 150.12H414.193V160.132H406.513C407.707 159.239 408.009 156.281 408.116 153.096Z" fill="#9F9F9F"/>
<path d="M423.358 161.34C426.102 161.34 428.116 159.379 428.116 156.649C428.116 153.918 426.102 151.975 423.358 151.975C420.613 151.975 418.582 153.918 418.582 156.649C418.582 159.379 420.613 161.34 423.358 161.34ZM423.358 160.237C421.362 160.237 419.865 158.802 419.865 156.649C419.865 154.496 421.362 153.061 423.358 153.061C425.354 153.061 426.833 154.496 426.833 156.649C426.833 158.802 425.354 160.237 423.358 160.237Z" fill="#9F9F9F"/>
<path d="M430.82 152.046V161.252H432.085V153.148H437.965V161.252H439.231V152.046H430.82Z" fill="#9F9F9F"/>
<path d="M446.694 161.34C449.438 161.34 451.452 159.379 451.452 156.649C451.452 153.918 449.438 151.975 446.694 151.975C443.95 151.975 441.918 153.918 441.918 156.649C441.918 159.379 443.95 161.34 446.694 161.34ZM446.694 160.237C444.698 160.237 443.201 158.802 443.201 156.649C443.201 154.496 444.698 153.061 446.694 153.061C448.69 153.061 450.169 154.496 450.169 156.649C450.169 158.802 448.69 160.237 446.694 160.237Z" fill="#9F9F9F"/>
<path d="M454.906 152.046L454.745 155.336C454.621 157.769 454.478 160.237 452.928 160.237C452.803 160.237 452.643 160.202 452.482 160.167L452.393 161.235C452.732 161.322 453.017 161.375 453.302 161.375C455.316 161.375 455.725 158.644 455.886 155.424L456.011 153.148H460.501V161.252H461.766V152.046H454.906Z" fill="#9F9F9F"/>
<path d="M465.363 161.252H466.628V157.191H472.527V161.252H473.792V152.046H472.527V156.124H466.628V152.046H465.363V161.252Z" fill="#9F9F9F"/>
<path d="M477.388 161.252H478.528L484.765 153.936V161.252H486.031V152.046H484.908L478.653 159.362V152.046H477.388V161.252Z" fill="#9F9F9F"/>
<path d="M496.25 152.046H487.892V153.148H491.439V161.252H492.704V153.148H496.25V152.046Z" fill="#9F9F9F"/>
<path d="M505.859 156.649C505.859 153.883 503.952 151.975 501.315 151.975C498.678 151.975 496.735 153.918 496.735 156.649C496.735 159.379 498.731 161.34 501.654 161.34C503.133 161.34 504.434 160.814 505.271 159.834L504.558 159.029C503.846 159.834 502.83 160.237 501.689 160.237C499.64 160.237 498.143 158.959 498.001 157.034H505.841C505.841 156.894 505.859 156.754 505.859 156.649ZM501.315 153.043C503.151 153.043 504.487 154.303 504.647 156.106H498.001C498.161 154.303 499.497 153.043 501.315 153.043Z" fill="#9F9F9F"/>
<path d="M509.27 152.046L509.11 155.336C508.985 157.769 508.843 160.237 507.292 160.237C507.168 160.237 507.007 160.202 506.847 160.167L506.758 161.235C507.096 161.322 507.381 161.375 507.666 161.375C509.68 161.375 510.09 158.644 510.25 155.424L510.375 153.148H514.866V161.252H516.131V152.046H509.27Z" fill="#9F9F9F"/>
<path d="M523.755 155.301L520.993 155.266V152.046H519.728V161.252L523.505 161.27C526 161.305 527.355 160.202 527.355 158.242C527.355 156.351 526.107 155.319 523.755 155.301ZM523.434 160.324L520.993 160.289V156.194L523.434 156.229C525.18 156.246 526.071 156.876 526.071 158.242C526.071 159.624 525.163 160.342 523.434 160.324Z" fill="#9F9F9F"/>
<path d="M529.769 161.252H531.034V157.191H536.932V161.252H538.197V152.046H536.932V156.124H531.034V152.046H529.769V161.252Z" fill="#9F9F9F"/>
<path d="M545.732 155.301L543.059 155.266V152.046H541.794V161.252L545.5 161.27C547.977 161.305 549.349 160.202 549.349 158.242C549.349 156.351 548.084 155.319 545.732 155.301ZM550.917 161.252H552.183V152.046H550.917V161.252ZM545.429 160.324L543.059 160.289V156.194L545.429 156.229C547.175 156.246 548.066 156.876 548.066 158.242C548.066 159.624 547.157 160.342 545.429 160.324Z" fill="#9F9F9F"/>
<path d="M564 156.649C564 153.883 562.093 151.975 559.456 151.975C556.819 151.975 554.876 153.918 554.876 156.649C554.876 159.379 556.872 161.34 559.795 161.34C561.274 161.34 562.574 160.814 563.412 159.834L562.699 159.029C561.986 159.834 560.971 160.237 559.83 160.237C557.781 160.237 556.284 158.959 556.141 157.034H563.982C563.982 156.894 564 156.754 564 156.649ZM559.456 153.043C561.291 153.043 562.628 154.303 562.788 156.106H556.141C556.302 154.303 557.638 153.043 559.456 153.043Z" fill="#9F9F9F"/>
<path d="M213.372 299.55V298.529H210.854L211.265 295H210.301L209.89 298.529H206.213L206.641 295H205.66L205.249 298.529H202.571V299.55H205.124L204.66 303.45H202V304.471H204.535L204.124 308H205.088L205.517 304.471H209.176L208.766 308H209.73L210.14 304.471H212.8V303.45H210.265L210.729 299.55H213.372ZM209.301 303.45H205.624L206.106 299.55H209.765L209.301 303.45Z" fill="black"/>
<path d="M224.516 296.189V295H215.947V308H217.268V302.484H223.731V301.296H217.268V296.189H224.516Z" fill="black"/>
<path d="M235.813 296.189V295H227.244V308H228.565V302.484H235.027V301.296H228.565V296.189H235.813Z" fill="black"/>
<path d="M247.11 296.189V295H238.541V308H239.862V302.484H246.324V301.296H239.862V296.189H247.11Z" fill="black"/>
<path d="M258.406 296.189V295H249.838V308H251.159V302.484H257.621V301.296H251.159V296.189H258.406Z" fill="black"/>
<path d="M269.703 296.189V295H261.134V308H262.455V302.484H268.918V301.296H262.455V296.189H269.703Z" fill="black"/>
<path d="M281 296.189V295H272.431V308H273.752V302.484H280.215V301.296H273.752V296.189H281Z" fill="black"/>
<path d="M111.289 299.583V298.579H108.79L109.197 295.11H108.24L107.833 298.579H104.182L104.608 295.11H103.633L103.225 298.579H100.567V299.583H103.101L102.64 303.417H100V304.421H102.516L102.109 307.89H103.066L103.491 304.421H107.124L106.716 307.89H107.673L108.081 304.421H110.721V303.417H108.205L108.666 299.583H111.289ZM107.248 303.417H103.597L104.076 299.583H107.709L107.248 303.417Z" fill="black"/>
<path d="M116.964 300.587L120.473 296.041V295.11H112.499V296.278H118.843L115.405 300.715V301.683H116.291C118.595 301.683 119.64 302.687 119.64 304.221C119.64 305.809 118.506 306.795 116.451 306.795C114.838 306.795 113.402 306.174 112.605 305.316L111.985 306.357C112.942 307.361 114.661 308 116.451 308C119.445 308 120.952 306.357 120.952 304.221C120.952 302.176 119.623 300.733 116.964 300.587Z" fill="black"/>
<path d="M127.694 308C130.565 308 132.656 305.572 132.656 301.5C132.656 297.428 130.565 295 127.694 295C124.823 295 122.75 297.428 122.75 301.5C122.75 305.572 124.823 308 127.694 308ZM127.694 306.795C125.532 306.795 124.043 304.914 124.043 301.5C124.043 298.086 125.532 296.205 127.694 296.205C129.856 296.205 131.345 298.086 131.345 301.5C131.345 304.914 129.856 306.795 127.694 306.795Z" fill="black"/>
<path d="M144.088 296.278V295.11H135.582V307.89H136.893V302.468H143.308V301.299H136.893V296.278H144.088Z" fill="black"/>
<path d="M145.195 295.11V296.278H148.119V307.89H149.395V295.11H145.195Z" fill="black"/>
<path d="M157.305 308C160.175 308 162.267 305.572 162.267 301.5C162.267 297.428 160.175 295 157.305 295C154.434 295 152.36 297.428 152.36 301.5C152.36 305.572 154.434 308 157.305 308ZM157.305 306.795C155.143 306.795 153.654 304.914 153.654 301.5C153.654 298.086 155.143 296.205 157.305 296.205C159.467 296.205 160.955 298.086 160.955 301.5C160.955 304.914 159.467 306.795 157.305 306.795Z" fill="black"/>
<path d="M169.038 308C171.909 308 174 305.572 174 301.5C174 297.428 171.909 295 169.038 295C166.167 295 164.094 297.428 164.094 301.5C164.094 305.572 166.167 308 169.038 308ZM169.038 306.795C166.876 306.795 165.387 304.914 165.387 301.5C165.387 298.086 166.876 296.205 169.038 296.205C171.2 296.205 172.689 298.086 172.689 301.5C172.689 304.914 171.2 306.795 169.038 306.795Z" fill="black"/>
<path d="M403.326 299.583V298.579H400.819L401.228 295.11H400.267L399.859 298.579H396.196L396.623 295.11H395.645L395.236 298.579H392.569V299.583H395.111L394.649 303.417H392V304.421H394.525L394.116 307.89H395.076L395.503 304.421H399.147L398.738 307.89H399.699L400.107 304.421H402.757V303.417H400.232L400.694 299.583H403.326ZM399.272 303.417H395.609L396.089 299.583H399.734L399.272 303.417Z" fill="black"/>
<path d="M409.749 308C412.629 308 414.727 305.572 414.727 301.5C414.727 297.428 412.629 295 409.749 295C406.869 295 404.789 297.428 404.789 301.5C404.789 305.572 406.869 308 409.749 308ZM409.749 306.795C407.58 306.795 406.086 304.914 406.086 301.5C406.086 298.086 407.58 296.205 409.749 296.205C411.918 296.205 413.412 298.086 413.412 301.5C413.412 304.914 411.918 306.795 409.749 306.795Z" fill="black"/>
<path d="M421.521 308C424.401 308 426.499 305.572 426.499 301.5C426.499 297.428 424.401 295 421.521 295C418.641 295 416.561 297.428 416.561 301.5C416.561 305.572 418.641 308 421.521 308ZM421.521 306.795C419.352 306.795 417.858 304.914 417.858 301.5C417.858 298.086 419.352 296.205 421.521 296.205C423.69 296.205 425.184 298.086 425.184 301.5C425.184 304.914 423.69 306.795 421.521 306.795Z" fill="black"/>
<path d="M437.969 296.278V295.11H429.435V307.89H430.751V302.468H437.187V301.299H430.751V296.278H437.969Z" fill="black"/>
<path d="M444.301 308C447.181 308 449.279 305.572 449.279 301.5C449.279 297.428 447.181 295 444.301 295C441.421 295 439.34 297.428 439.34 301.5C439.34 305.572 441.421 308 444.301 308ZM444.301 306.795C442.132 306.795 440.638 304.914 440.638 301.5C440.638 298.086 442.132 296.205 444.301 296.205C446.47 296.205 447.964 298.086 447.964 301.5C447.964 304.914 446.47 306.795 444.301 306.795Z" fill="black"/>
<path d="M460.749 296.278V295.11H452.215V307.89H453.53V302.468H459.967V301.299H453.53V296.278H460.749Z" fill="black"/>
<path d="M472 296.278V295.11H463.466V307.89H464.782V302.468H471.218V301.299H464.782V296.278H472Z" fill="black"/>
<path d="M402.386 344.195H403.785L398.047 331.747H396.738L391 344.195H392.381L393.887 340.87H400.88L402.386 344.195ZM394.371 339.803L397.383 333.116L400.396 339.803H394.371Z" fill="#9F9F9F"/>
<path d="M412.892 334.841V336.691C412.121 335.446 410.812 334.77 409.252 334.77C406.562 334.77 404.554 336.691 404.554 339.518C404.554 342.364 406.562 344.284 409.252 344.284C410.758 344.284 412.049 343.644 412.838 342.435V347.645H414.111V334.841H412.892ZM409.359 343.164C407.351 343.164 405.845 341.706 405.845 339.518C405.845 337.349 407.351 335.873 409.359 335.873C411.35 335.873 412.856 337.349 412.856 339.518C412.856 341.706 411.35 343.164 409.359 343.164Z" fill="#9F9F9F"/>
<path d="M424.883 334.841V339.75C424.883 341.884 423.646 343.146 421.673 343.146C419.88 343.146 418.84 342.133 418.84 340.141V334.841H417.567V340.265C417.567 342.951 419.145 344.284 421.548 344.284C423.054 344.284 424.273 343.626 424.937 342.488V344.195H426.156V334.841H424.883Z" fill="#9F9F9F"/>
<path d="M433.021 334.77C431.532 334.77 430.134 335.233 429.183 336.033L429.757 336.975C430.528 336.3 431.676 335.873 432.895 335.873C434.652 335.873 435.567 336.744 435.567 338.345V338.914H432.572C429.865 338.914 428.932 340.123 428.932 341.563C428.932 343.182 430.241 344.284 432.375 344.284C433.935 344.284 435.047 343.698 435.621 342.737V344.195H436.84V338.398C436.84 335.979 435.459 334.77 433.021 334.77ZM432.572 343.288C431.066 343.288 430.188 342.613 430.188 341.528C430.188 340.568 430.779 339.856 432.608 339.856H435.567V341.386C435.065 342.613 434.007 343.288 432.572 343.288Z" fill="#9F9F9F"/>
<path d="M444.816 342.719C444.458 343.04 443.938 343.2 443.418 343.2C442.36 343.2 441.786 342.595 441.786 341.492V335.908H444.655V334.841H441.786V332.796H440.513V334.841H438.827V335.908H440.513V341.563C440.513 343.288 441.499 344.284 443.274 344.284C444.009 344.284 444.762 344.071 445.264 343.626L444.816 342.719Z" fill="#9F9F9F"/>
<path d="M448.228 332.796C448.765 332.796 449.16 332.387 449.16 331.871C449.16 331.391 448.748 331 448.228 331C447.708 331 447.295 331.409 447.295 331.889C447.295 332.387 447.708 332.796 448.228 332.796ZM447.582 344.195H448.855V334.841H447.582V344.195Z" fill="#9F9F9F"/>
<path d="M456.306 344.284C457.902 344.284 459.247 343.644 460 342.435L459.05 341.795C458.404 342.737 457.4 343.164 456.306 343.164C454.244 343.164 452.738 341.724 452.738 339.518C452.738 337.331 454.244 335.873 456.306 335.873C457.4 335.873 458.404 336.317 459.05 337.26L460 336.62C459.247 335.393 457.902 334.77 456.306 334.77C453.491 334.77 451.447 336.726 451.447 339.518C451.447 342.31 453.491 344.284 456.306 344.284Z" fill="#9F9F9F"/>
<path d="M398.459 363.568C400.306 363.568 401.956 362.945 403.067 361.736L402.225 360.9C401.203 361.949 399.947 362.394 398.513 362.394C395.483 362.394 393.205 360.189 393.205 357.237C393.205 354.285 395.483 352.08 398.513 352.08C399.947 352.08 401.203 352.524 402.225 353.556L403.067 352.72C401.956 351.51 400.306 350.906 398.477 350.906C394.694 350.906 391.897 353.591 391.897 357.237C391.897 360.882 394.694 363.568 398.459 363.568Z" fill="#9F9F9F"/>
<path d="M412.297 354.107L408.747 362.056L405.197 354.107H403.87L408.083 363.443L407.671 364.35C407.133 365.524 406.559 365.915 405.717 365.915C405.035 365.915 404.461 365.666 403.995 365.204L403.404 366.146C403.977 366.715 404.82 367 405.699 367C407.043 367 408.048 366.413 408.837 364.581L413.552 354.107H412.297Z" fill="#9F9F9F"/>
<path d="M418.364 354.036C416.876 354.036 415.478 354.498 414.527 355.298L415.101 356.241C415.872 355.565 417.02 355.138 418.239 355.138C419.996 355.138 420.911 356.01 420.911 357.61V358.179H417.916C415.209 358.179 414.276 359.389 414.276 360.829C414.276 362.447 415.585 363.55 417.719 363.55C419.279 363.55 420.391 362.963 420.964 362.003V363.461H422.184V357.664C422.184 355.245 420.803 354.036 418.364 354.036ZM417.916 362.554C416.41 362.554 415.531 361.878 415.531 360.794C415.531 359.833 416.123 359.122 417.952 359.122H420.911V360.651C420.408 361.878 419.351 362.554 417.916 362.554Z" fill="#9F9F9F"/>
<path d="M430.447 354.036C428.815 354.036 427.542 354.694 426.861 355.832V354.107H425.641V363.461H426.914V358.553C426.914 356.419 428.188 355.174 430.214 355.174C432.007 355.174 433.047 356.188 433.047 358.162V363.461H434.32V358.037C434.32 355.352 432.742 354.036 430.447 354.036Z" fill="#9F9F9F"/>
<path d="M207.283 344.077C210.445 344.077 211.894 342.539 211.894 340.738C211.894 336.28 204.279 338.308 204.279 334.951C204.279 333.727 205.286 332.731 207.548 332.731C208.643 332.731 209.88 333.063 210.94 333.745L211.382 332.713C210.392 332.032 208.944 331.629 207.548 331.629C204.403 331.629 202.989 333.185 202.989 334.986C202.989 339.514 210.604 337.451 210.604 340.808C210.604 342.014 209.597 342.976 207.283 342.976C205.657 342.976 204.085 342.347 203.201 341.49L202.689 342.486C203.608 343.431 205.428 344.077 207.283 344.077Z" fill="#9F9F9F"/>
<path d="M218.329 344.06C219.902 344.06 221.227 343.431 221.969 342.242L221.033 341.612C220.397 342.539 219.407 342.958 218.329 342.958C216.298 342.958 214.814 341.542 214.814 339.374C214.814 337.224 216.298 335.79 218.329 335.79C219.407 335.79 220.397 336.227 221.033 337.154L221.969 336.525C221.227 335.318 219.902 334.706 218.329 334.706C215.556 334.706 213.541 336.63 213.541 339.374C213.541 342.119 215.556 344.06 218.329 344.06Z" fill="#9F9F9F"/>
<path d="M225.635 336.577V334.776H224.433V343.973H225.688V339.287C225.688 337.119 226.872 335.895 228.815 335.895C228.903 335.895 229.009 335.913 229.115 335.913V334.706C227.402 334.706 226.218 335.353 225.635 336.577Z" fill="#9F9F9F"/>
<path d="M232.023 332.766C232.553 332.766 232.942 332.364 232.942 331.857C232.942 331.385 232.535 331 232.023 331C231.51 331 231.104 331.402 231.104 331.874C231.104 332.364 231.51 332.766 232.023 332.766ZM231.387 343.973H232.641V334.776H231.387V343.973Z" fill="#9F9F9F"/>
<path d="M240.92 334.706C239.383 334.706 238.093 335.371 237.333 336.595V334.776H236.132V347.364H237.386V342.242C238.163 343.431 239.436 344.06 240.92 344.06C243.57 344.06 245.549 342.172 245.549 339.374C245.549 336.595 243.57 334.706 240.92 334.706ZM240.831 342.958C238.853 342.958 237.368 341.525 237.368 339.374C237.368 337.241 238.853 335.79 240.831 335.79C242.793 335.79 244.294 337.241 244.294 339.374C244.294 341.525 242.793 342.958 240.831 342.958Z" fill="#9F9F9F"/>
<path d="M252.558 342.521C252.205 342.836 251.693 342.993 251.18 342.993C250.138 342.993 249.572 342.399 249.572 341.315V335.825H252.399V334.776H249.572V332.766H248.318V334.776H246.657V335.825H248.318V341.385C248.318 343.081 249.29 344.06 251.039 344.06C251.763 344.06 252.505 343.85 253 343.413L252.558 342.521Z" fill="#9F9F9F"/>
<path d="M216.099 353.716L213.149 361.531L210.18 353.716H209.103L206.117 361.531L203.201 353.716H202L205.498 362.913H206.682L209.615 355.377L212.548 362.913H213.732L217.248 353.716H216.099Z" fill="#9F9F9F"/>
<path d="M223.871 353.647C222.299 353.647 221.08 354.258 220.391 355.325V349.94H219.136V362.913H220.391V358.087C220.391 355.989 221.645 354.765 223.642 354.765C225.409 354.765 226.433 355.762 226.433 357.703V362.913H227.688V357.58C227.688 354.94 226.133 353.647 223.871 353.647Z" fill="#9F9F9F"/>
<path d="M231.73 351.706C232.26 351.706 232.648 351.304 232.648 350.797C232.648 350.325 232.242 349.94 231.73 349.94C231.217 349.94 230.811 350.342 230.811 350.814C230.811 351.304 231.217 351.706 231.73 351.706ZM231.093 362.913H232.348V353.716H231.093V362.913Z" fill="#9F9F9F"/>
<path d="M240.291 361.461C239.937 361.776 239.425 361.934 238.913 361.934C237.87 361.934 237.305 361.339 237.305 360.255V354.765H240.132V353.716H237.305V351.706H236.05V353.716H234.39V354.765H236.05V360.325C236.05 362.021 237.022 363 238.771 363C239.496 363 240.238 362.79 240.732 362.353L240.291 361.461Z" fill="#9F9F9F"/>
<path d="M250.798 358.315C250.798 355.552 248.907 353.647 246.292 353.647C243.678 353.647 241.752 355.587 241.752 358.315C241.752 361.042 243.731 363 246.628 363C248.095 363 249.384 362.476 250.215 361.496L249.508 360.692C248.801 361.496 247.794 361.899 246.663 361.899C244.632 361.899 243.148 360.622 243.006 358.699H250.78C250.78 358.559 250.798 358.419 250.798 358.315ZM246.292 354.713C248.112 354.713 249.437 355.972 249.596 357.773H243.006C243.165 355.972 244.49 354.713 246.292 354.713Z" fill="#9F9F9F"/>
<path d="M106.797 331.747H102.194V344.195H103.494V340.265H106.797C109.923 340.265 111.82 338.665 111.82 336.015C111.82 333.347 109.923 331.747 106.797 331.747ZM106.762 339.109H103.494V332.885H106.762C109.221 332.885 110.521 334.023 110.521 336.015C110.521 337.971 109.221 339.109 106.762 339.109Z" fill="#9F9F9F"/>
<path d="M118.093 344.284C120.798 344.284 122.783 342.293 122.783 339.518C122.783 336.744 120.798 334.77 118.093 334.77C115.388 334.77 113.385 336.744 113.385 339.518C113.385 342.293 115.388 344.284 118.093 344.284ZM118.093 343.164C116.125 343.164 114.65 341.706 114.65 339.518C114.65 337.331 116.125 335.873 118.093 335.873C120.06 335.873 121.518 337.331 121.518 339.518C121.518 341.706 120.06 343.164 118.093 343.164Z" fill="#9F9F9F"/>
<path d="M125.961 332.796C126.488 332.796 126.875 332.387 126.875 331.871C126.875 331.391 126.471 331 125.961 331C125.452 331 125.048 331.409 125.048 331.889C125.048 332.387 125.452 332.796 125.961 332.796ZM125.329 344.195H126.576V334.841H125.329V344.195Z" fill="#9F9F9F"/>
<path d="M134.754 334.77C133.155 334.77 131.908 335.428 131.241 336.566V334.841H130.046V344.195H131.293V339.287C131.293 337.153 132.541 335.908 134.525 335.908C136.282 335.908 137.301 336.922 137.301 338.896V344.195H138.548V338.771C138.548 336.086 137.002 334.77 134.754 334.77Z" fill="#9F9F9F"/>
<path d="M146.36 342.719C146.009 343.04 145.5 343.2 144.99 343.2C143.954 343.2 143.392 342.595 143.392 341.492V335.908H146.202V334.841H143.392V332.796H142.145V334.841H140.494V335.908H142.145V341.563C142.145 343.288 143.111 344.284 144.85 344.284C145.57 344.284 146.308 344.071 146.8 343.626L146.36 342.719Z" fill="#9F9F9F"/>
<path d="M156.807 339.518C156.807 336.709 154.927 334.77 152.327 334.77C149.728 334.77 147.813 336.744 147.813 339.518C147.813 342.293 149.78 344.284 152.661 344.284C154.119 344.284 155.401 343.751 156.227 342.755L155.524 341.937C154.822 342.755 153.82 343.164 152.696 343.164C150.676 343.164 149.201 341.866 149.06 339.91H156.789C156.789 339.767 156.807 339.625 156.807 339.518ZM152.327 335.855C154.137 335.855 155.454 337.135 155.612 338.967H149.06C149.218 337.135 150.536 335.855 152.327 335.855Z" fill="#9F9F9F"/>
<path d="M160.54 336.673V334.841H159.345V344.195H160.592V339.429C160.592 337.224 161.769 335.979 163.701 335.979C163.789 335.979 163.895 335.997 164 335.997V334.77C162.296 334.77 161.119 335.428 160.54 336.673Z" fill="#9F9F9F"/>
<path d="M109.291 354.107V355.903C108.518 354.676 107.183 354.036 105.637 354.036C103.002 354.036 101 355.867 101 358.553C101 361.238 103.002 363.105 105.637 363.105C107.148 363.105 108.465 362.483 109.238 361.291V362.483C109.238 364.795 108.167 365.88 105.831 365.88C104.408 365.88 103.073 365.399 102.194 364.599L101.562 365.56C102.528 366.484 104.179 367 105.866 367C108.922 367 110.485 365.542 110.485 362.323V354.107H109.291ZM105.76 361.985C103.723 361.985 102.265 360.58 102.265 358.553C102.265 356.525 103.723 355.138 105.76 355.138C107.798 355.138 109.273 356.525 109.273 358.553C109.273 360.58 107.798 361.985 105.76 361.985Z" fill="#9F9F9F"/>
<path d="M115.167 355.939V354.107H113.973V363.461H115.22V358.695C115.22 356.49 116.397 355.245 118.329 355.245C118.417 355.245 118.523 355.263 118.628 355.263V354.036C116.924 354.036 115.747 354.694 115.167 355.939Z" fill="#9F9F9F"/>
<path d="M128.863 358.784C128.863 355.974 126.983 354.036 124.384 354.036C121.784 354.036 119.869 356.01 119.869 358.784C119.869 361.558 121.837 363.55 124.717 363.55C126.175 363.55 127.458 363.016 128.283 362.021L127.581 361.203C126.878 362.021 125.877 362.43 124.753 362.43C122.732 362.43 121.257 361.131 121.116 359.175H128.845C128.845 359.033 128.863 358.891 128.863 358.784ZM124.384 355.121C126.193 355.121 127.51 356.401 127.668 358.233H121.116C121.275 356.401 122.592 355.121 124.384 355.121Z" fill="#9F9F9F"/>
<path d="M139.464 358.784C139.464 355.974 137.584 354.036 134.985 354.036C132.385 354.036 130.47 356.01 130.47 358.784C130.47 361.558 132.438 363.55 135.319 363.55C136.776 363.55 138.059 363.016 138.884 362.021L138.182 361.203C137.479 362.021 136.478 362.43 135.354 362.43C133.334 362.43 131.858 361.131 131.718 359.175H139.446C139.446 359.033 139.464 358.891 139.464 358.784ZM134.985 355.121C136.794 355.121 138.111 356.401 138.27 358.233H131.718C131.876 356.401 133.193 355.121 134.985 355.121Z" fill="#9F9F9F"/>
<path d="M146.71 354.036C145.112 354.036 143.864 354.694 143.197 355.832V354.107H142.003V363.461H143.25V358.553C143.25 356.419 144.497 355.174 146.482 355.174C148.238 355.174 149.257 356.188 149.257 358.162V363.461H150.504V358.037C150.504 355.352 148.958 354.036 146.71 354.036Z" fill="#9F9F9F"/>
<path d="M3.45946 344.238C5.84898 344.238 7.09724 342.973 7.09724 340.407V332H1.23043V333.109H5.79549V340.459C5.79549 342.245 5.01087 343.129 3.47729 343.129C2.37169 343.129 1.46225 342.609 0.78462 341.638L0 342.505C0.766787 343.614 2.05071 344.238 3.45946 344.238Z" fill="#9F9F9F"/>
<path d="M17.9745 335.016V339.801C17.9745 341.881 16.7441 343.111 14.7825 343.111C12.9993 343.111 11.965 342.123 11.965 340.182V335.016H10.6989V340.303C10.6989 342.921 12.2682 344.221 14.6577 344.221C16.1556 344.221 17.3682 343.579 18.028 342.47V344.134H19.2406V335.016H17.9745Z" fill="#9F9F9F"/>
<path d="M25.3009 344.221C27.7439 344.221 29.1705 343.198 29.1705 341.621C29.1705 338.119 23.0897 339.974 23.0897 337.512C23.0897 336.646 23.8387 336.004 25.5327 336.004C26.4957 336.004 27.4765 336.23 28.2967 336.784L28.8495 335.796C28.0649 335.276 26.7453 334.947 25.5327 334.947C23.1432 334.947 21.8236 336.056 21.8236 337.547C21.8236 341.153 27.9044 339.281 27.9044 341.655C27.9044 342.557 27.1733 343.146 25.3901 343.146C24.0705 343.146 22.8044 342.695 22.0554 342.123L21.4848 343.094C22.2516 343.736 23.7495 344.221 25.3009 344.221Z" fill="#9F9F9F"/>
<path d="M36.0049 342.695C35.6482 343.007 35.1311 343.163 34.614 343.163C33.5619 343.163 32.9912 342.574 32.9912 341.499V336.056H35.8444V335.016H32.9912V333.023H31.7251V335.016H30.0489V336.056H31.7251V341.569C31.7251 343.25 32.7059 344.221 34.4713 344.221C35.2024 344.221 35.9514 344.013 36.4507 343.579L36.0049 342.695Z" fill="#9F9F9F"/>
<path d="M6.6871 353.726C5.18919 353.726 3.90527 354.35 3.12065 355.529V350.051H1.85456V362.913H3.06715V361.111C3.83394 362.341 5.13569 363 6.6871 363C9.36194 363 11.3592 361.111 11.3592 358.354C11.3592 355.598 9.36194 353.726 6.6871 353.726ZM6.59794 361.908C4.60072 361.908 3.10281 360.486 3.10281 358.354C3.10281 356.222 4.60072 354.801 6.59794 354.801C8.57732 354.801 10.0931 356.222 10.0931 358.354C10.0931 360.486 8.57732 361.908 6.59794 361.908Z" fill="#9F9F9F"/>
<path d="M13.9401 362.913H15.2062V350.051H13.9401V362.913Z" fill="#9F9F9F"/>
<path d="M22.0102 353.726C20.5301 353.726 19.1392 354.177 18.1941 354.957L18.7647 355.875C19.5315 355.217 20.6727 354.801 21.8853 354.801C23.6329 354.801 24.5423 355.65 24.5423 357.21V357.765H21.5644C18.8717 357.765 17.9444 358.944 17.9444 360.348C17.9444 361.925 19.2462 363 21.3682 363C22.9196 363 24.0252 362.428 24.5958 361.492V362.913H25.8084V357.262C25.8084 354.905 24.4354 353.726 22.0102 353.726ZM21.5644 362.029C20.0665 362.029 19.1927 361.371 19.1927 360.313C19.1927 359.377 19.7811 358.684 21.6 358.684H24.5423V360.174C24.043 361.371 22.9909 362.029 21.5644 362.029Z" fill="#9F9F9F"/>
<path d="M33.1695 363C34.7566 363 36.094 362.376 36.843 361.197L35.8979 360.573C35.2559 361.492 34.2573 361.908 33.1695 361.908C31.1188 361.908 29.6209 360.504 29.6209 358.354C29.6209 356.222 31.1188 354.801 33.1695 354.801C34.2573 354.801 35.2559 355.234 35.8979 356.153L36.843 355.529C36.094 354.333 34.7566 353.726 33.1695 353.726C30.3699 353.726 28.337 355.633 28.337 358.354C28.337 361.076 30.3699 363 33.1695 363Z" fill="#9F9F9F"/>
<path d="M46.4486 362.913H48L43.6133 357.522L47.6255 353.795H46.0563L40.4569 358.77V350.051H39.1909V362.913H40.4569V360.313L42.6681 358.337L46.4486 362.913Z" fill="#9F9F9F"/>
<path d="M514.699 337.96C515.816 337.511 516.567 336.596 516.567 335.213C516.567 333.244 514.996 332.104 512.272 332.104H507V344.197H512.621C515.676 344.197 517.213 343.022 517.213 340.967C517.213 339.325 516.27 338.306 514.699 337.96ZM512.185 333.158C514.14 333.158 515.275 333.9 515.275 335.352C515.275 336.803 514.14 337.546 512.185 337.546H508.292V333.158H512.185ZM512.604 343.143H508.292V338.6H512.604C514.751 338.6 515.921 339.291 515.921 340.863C515.921 342.452 514.751 343.143 512.604 343.143Z" fill="#9F9F9F"/>
<path d="M520.161 344.197H521.453V332.104H520.161V344.197Z" fill="#9F9F9F"/>
<path d="M530.772 344.301C534.438 344.301 537.179 341.692 537.179 338.15C537.179 334.609 534.438 332 530.772 332C527.071 332 524.347 334.626 524.347 338.15C524.347 341.675 527.071 344.301 530.772 344.301ZM530.772 343.161C527.821 343.161 525.622 341.036 525.622 338.15C525.622 335.265 527.821 333.14 530.772 333.14C533.704 333.14 535.887 335.265 535.887 338.15C535.887 341.036 533.704 343.161 530.772 343.161Z" fill="#9F9F9F"/>
<path d="M543.444 344.301C546.568 344.301 548 342.781 548 341.001C548 336.596 540.476 338.6 540.476 335.283C540.476 334.073 541.471 333.088 543.705 333.088C544.788 333.088 546.01 333.417 547.057 334.09L547.494 333.071C546.516 332.397 545.085 332 543.705 332C540.598 332 539.201 333.538 539.201 335.317C539.201 339.792 546.726 337.753 546.726 341.07C546.726 342.262 545.73 343.213 543.444 343.213C541.837 343.213 540.284 342.591 539.411 341.744L538.905 342.729C539.812 343.662 541.61 344.301 543.444 344.301Z" fill="#9F9F9F"/>
<path d="M514.699 356.677C515.816 356.228 516.567 355.312 516.567 353.93C516.567 351.96 514.996 350.82 512.272 350.82H507V362.914H512.621C515.676 362.914 517.213 361.739 517.213 359.683C517.213 358.042 516.27 357.022 514.699 356.677ZM512.185 351.874C514.14 351.874 515.275 352.617 515.275 354.068C515.275 355.519 514.14 356.262 512.185 356.262H508.292V351.874H512.185ZM512.604 361.86H508.292V357.316H512.604C514.751 357.316 515.921 358.007 515.921 359.579C515.921 361.169 514.751 361.86 512.604 361.86Z" fill="#9F9F9F"/>
<path d="M519.9 362.914H521.139V350.094H519.9V362.914Z" fill="#9F9F9F"/>
<path d="M531.623 353.826V358.594C531.623 360.668 530.419 361.894 528.498 361.894C526.753 361.894 525.74 360.91 525.74 358.975V353.826H524.501V359.095C524.501 361.704 526.037 363 528.376 363C529.843 363 531.03 362.361 531.676 361.255V362.914H532.863V353.826H531.623Z" fill="#9F9F9F"/>
<path d="M544.348 358.37C544.348 355.64 542.48 353.757 539.896 353.757C537.312 353.757 535.409 355.675 535.409 358.37C535.409 361.065 537.364 363 540.227 363C541.676 363 542.951 362.482 543.771 361.514L543.073 360.719C542.375 361.514 541.38 361.912 540.262 361.912C538.255 361.912 536.788 360.65 536.649 358.75H544.33C544.33 358.612 544.348 358.474 544.348 358.37ZM539.896 354.811C541.694 354.811 543.003 356.055 543.16 357.834H536.649C536.806 356.055 538.115 354.811 539.896 354.811Z" fill="#9F9F9F"/>
<path d="M512.258 299.583V298.579H509.766L510.173 295.11H509.218L508.812 298.579H505.171L505.595 295.11H504.623L504.217 298.579H501.566V299.583H504.093L503.633 303.417H501V304.421H503.51L503.103 307.89H504.058L504.482 304.421H508.105L507.698 307.89H508.653L509.059 304.421H511.692V303.417H509.183L509.642 299.583H512.258ZM508.228 303.417H504.588L505.065 299.583H508.688L508.228 303.417Z" fill="black"/>
<path d="M518.643 308C521.506 308 523.592 305.572 523.592 301.5C523.592 297.428 521.506 295 518.643 295C515.78 295 513.712 297.428 513.712 301.5C513.712 305.572 515.78 308 518.643 308ZM518.643 306.795C516.487 306.795 515.002 304.914 515.002 301.5C515.002 298.086 516.487 296.205 518.643 296.205C520.799 296.205 522.284 298.086 522.284 301.5C522.284 304.914 520.799 306.795 518.643 306.795Z" fill="black"/>
<path d="M530.345 308C533.208 308 535.294 305.572 535.294 301.5C535.294 297.428 533.208 295 530.345 295C527.482 295 525.414 297.428 525.414 301.5C525.414 305.572 527.482 308 530.345 308ZM530.345 306.795C528.189 306.795 526.704 304.914 526.704 301.5C526.704 298.086 528.189 296.205 530.345 296.205C532.501 296.205 533.986 298.086 533.986 301.5C533.986 304.914 532.501 306.795 530.345 306.795Z" fill="black"/>
<path d="M536.321 295.11V296.278H539.237V307.89H540.51V295.11H536.321Z" fill="black"/>
<path d="M547.32 295C544.916 295 543.096 296.534 543.096 298.926C543.096 301.263 544.81 302.76 547.267 302.76C548.981 302.76 550.431 301.975 551.049 300.569C551.084 300.952 551.102 301.317 551.102 301.61C551.102 305.079 549.388 306.85 546.719 306.85C545.8 306.85 544.952 306.685 544.316 306.247L543.803 307.306C544.581 307.799 545.623 308 546.737 308C550.095 308 552.392 305.736 552.392 301.39C552.392 297.355 550.607 295 547.32 295ZM547.461 301.646C545.553 301.646 544.351 300.569 544.351 298.889C544.351 297.191 545.588 296.114 547.373 296.114C549.512 296.114 550.643 297.447 550.643 298.853C550.643 300.441 549.353 301.646 547.461 301.646Z" fill="black"/>
<path d="M563.816 296.278V295.11H555.333V307.89H556.641V302.468H563.038V301.299H556.641V296.278H563.816Z" fill="black"/>
<path d="M575 296.278V295.11H566.517V307.89H567.825V302.468H574.222V301.299H567.825V296.278H575Z" fill="black"/>
<path d="M52 0H213V99H52V0Z" fill="black"/>
<path d="M180 34H186V59H180V34Z" fill="#30F100"/>
<path d="M74.5301 40.728V45.512H68.8789V40.728H66V52.8613H68.8789V47.8867H74.5301V52.8613H77.409V40.728H74.5301Z" fill="white"/>
<path d="M89.522 48.2333C89.522 45.2347 87.3539 43.3973 84.5461 43.3973C81.6317 43.3973 79.4458 45.408 79.4458 48.1987C79.4458 50.972 81.5961 53 84.9015 53C86.6253 53 87.9582 52.48 88.8467 51.492L87.3717 49.932C86.7142 50.5387 85.9856 50.8333 84.9726 50.8333C83.5154 50.8333 82.5025 50.1227 82.2359 48.9613H89.4687C89.4865 48.736 89.522 48.4413 89.522 48.2333ZM84.5639 45.4427C85.8079 45.4427 86.7142 46.2053 86.9097 47.384H82.2004C82.3958 46.188 83.3022 45.4427 84.5639 45.4427Z" fill="white"/>
<path d="M91.3677 52.8613H94.14V40H91.3677V52.8613Z" fill="white"/>
<path d="M96.7129 52.8613H99.4852V40H96.7129V52.8613Z" fill="white"/>
<path d="M106.607 53C109.646 53 111.85 51.0067 111.85 48.1987C111.85 45.3907 109.646 43.3973 106.607 43.3973C103.569 43.3973 101.347 45.3907 101.347 48.1987C101.347 51.0067 103.569 53 106.607 53ZM106.607 50.7813C105.221 50.7813 104.155 49.8107 104.155 48.1987C104.155 46.5867 105.221 45.616 106.607 45.616C107.994 45.616 109.042 46.5867 109.042 48.1987C109.042 49.8107 107.994 50.7813 106.607 50.7813Z" fill="white"/>
<path d="M131.637 43.536L129.309 49.8453L127.035 43.536H124.689L122.343 49.8453L120.086 43.536H117.474L120.922 52.8613H123.587L125.809 47.072L127.959 52.8613H130.625L134.09 43.536H131.637Z" fill="white"/>
<path d="M139.668 53C142.707 53 144.91 51.0067 144.91 48.1987C144.91 45.3907 142.707 43.3973 139.668 43.3973C136.629 43.3973 134.408 45.3907 134.408 48.1987C134.408 51.0067 136.629 53 139.668 53ZM139.668 50.7813C138.282 50.7813 137.215 49.8107 137.215 48.1987C137.215 46.5867 138.282 45.616 139.668 45.616C141.054 45.616 142.102 46.5867 142.102 48.1987C142.102 49.8107 141.054 50.7813 139.668 50.7813Z" fill="white"/>
<path d="M149.411 44.7667V43.536H146.763V52.8613H149.536V48.4587C149.536 46.6733 150.548 45.8587 152.077 45.8587C152.29 45.8587 152.468 45.876 152.699 45.8933V43.3973C151.224 43.3973 150.086 43.8653 149.411 44.7667Z" fill="white"/>
<path d="M154.347 52.8613H157.119V40H154.347V52.8613Z" fill="white"/>
<path d="M166.659 40V44.524C165.966 43.7613 164.97 43.3973 163.797 43.3973C161.096 43.3973 159.017 45.2693 159.017 48.1987C159.017 51.128 161.096 53 163.797 53C165.077 53 166.09 52.6013 166.783 51.7867V52.8613H169.431V40H166.659ZM164.277 50.7813C162.891 50.7813 161.825 49.8107 161.825 48.1987C161.825 46.5867 162.891 45.616 164.277 45.616C165.646 45.616 166.712 46.5867 166.712 48.1987C166.712 49.8107 165.646 50.7813 164.277 50.7813Z" fill="white"/>
<path d="M172.192 48.6493H174.396L174.947 40.728H171.641L172.192 48.6493ZM173.294 53C174.289 53 175 52.2893 175 51.4227C175 50.5387 174.289 49.88 173.294 49.88C172.299 49.88 171.588 50.5387 171.588 51.4227C171.588 52.2893 172.299 53 173.294 53Z" fill="white"/>
<path d="M404 0H565V99H404V0Z" fill="black"/>
<path d="M411 7H559V93H411V7Z" fill="#0019FF"/>
<path fill-rule="evenodd" clip-rule="evenodd" d="M556.78 9.22414H413.22V90.7759H556.78V9.22414ZM411 7V93H559V7H411Z" fill="#00F0FF"/>
<path d="M496 7H499V93H496V7Z" fill="#00F0FF"/>
<path d="M418 38H485V54H418V38Z" fill="#00F0FF"/>
<path d="M505 14H514V30H505V14Z" fill="#00F0FF"/>
<path d="M426.144 26.5882C429.099 26.5882 431.288 24.5607 431.288 21.791C431.288 19.0214 429.099 16.9939 426.144 16.9939C423.176 16.9939 421 19.0347 421 21.791C421 24.5474 423.176 26.5882 426.144 26.5882ZM426.144 24.7594C424.465 24.7594 423.203 23.5535 423.203 21.791C423.203 20.0285 424.465 18.8226 426.144 18.8226C427.823 18.8226 429.086 20.0285 429.086 21.791C429.086 23.5535 427.823 24.7594 426.144 24.7594Z" fill="#00F0FF"/>
<path d="M437.047 19.1937C436.08 19.1937 435.301 19.4985 434.777 20.1213V19.2997H432.776V29H434.871V25.6738C435.408 26.2569 436.147 26.5352 437.047 26.5352C439.075 26.5352 440.646 25.104 440.646 22.8644C440.646 20.6249 439.075 19.1937 437.047 19.1937ZM436.684 24.8389C435.637 24.8389 434.844 24.0968 434.844 22.8644C434.844 21.632 435.637 20.8899 436.684 20.8899C437.732 20.8899 438.524 21.632 438.524 22.8644C438.524 24.0968 437.732 24.8389 436.684 24.8389Z" fill="#00F0FF"/>
<path d="M446.146 24.6269C445.917 24.7992 445.608 24.8919 445.299 24.8919C444.735 24.8919 444.399 24.5607 444.399 23.9511V21.0489H446.199V19.4587H444.399V17.7227H442.304V19.4587H441.189V21.0489H442.304V23.9776C442.304 25.6738 443.298 26.5352 445.004 26.5352C445.649 26.5352 446.28 26.3894 446.71 26.0846L446.146 24.6269Z" fill="#00F0FF"/>
<path d="M448.933 18.3058C449.712 18.3058 450.236 17.8022 450.236 17.1132C450.236 16.4771 449.712 16 448.933 16C448.154 16 447.631 16.5036 447.631 17.1529C447.631 17.8022 448.154 18.3058 448.933 18.3058ZM447.886 26.4292H449.981V19.2997H447.886V26.4292Z" fill="#00F0FF"/>
<path d="M455.364 26.5352C457.661 26.5352 459.326 25.0112 459.326 22.8644C459.326 20.7176 457.661 19.1937 455.364 19.1937C453.067 19.1937 451.388 20.7176 451.388 22.8644C451.388 25.0112 453.067 26.5352 455.364 26.5352ZM455.364 24.8389C454.316 24.8389 453.511 24.0968 453.511 22.8644C453.511 21.632 454.316 20.8899 455.364 20.8899C456.412 20.8899 457.204 21.632 457.204 22.8644C457.204 24.0968 456.412 24.8389 455.364 24.8389Z" fill="#00F0FF"/>
<path d="M465.119 19.1937C464.138 19.1937 463.292 19.525 462.728 20.1346V19.2997H460.727V26.4292H462.822V22.9042C462.822 21.5923 463.547 20.9827 464.555 20.9827C465.481 20.9827 466.019 21.5127 466.019 22.6656V26.4292H468.114V22.3476C468.114 20.1743 466.824 19.1937 465.119 19.1937Z" fill="#00F0FF"/>
<path d="M472.944 17.1529V18.8756H474.824V26.4292H477V17.1529H472.944Z" fill="#00F0FF"/>
<path d="M426.11 50.5882C429.045 50.5882 431.219 48.5607 431.219 45.791C431.219 43.0214 429.045 40.9939 426.11 40.9939C423.161 40.9939 421 43.0347 421 45.791C421 48.5474 423.161 50.5882 426.11 50.5882ZM426.11 48.7594C424.442 48.7594 423.188 47.5535 423.188 45.791C423.188 44.0285 424.442 42.8226 426.11 42.8226C427.777 42.8226 429.031 44.0285 429.031 45.791C429.031 47.5535 427.777 48.7594 426.11 48.7594Z" fill="#0019FF"/>
<path d="M436.939 43.1937C435.979 43.1937 435.205 43.4985 434.685 44.1213V43.2997H432.697V53H434.778V49.6738C435.312 50.2569 436.045 50.5352 436.939 50.5352C438.954 50.5352 440.515 49.104 440.515 46.8644C440.515 44.6249 438.954 43.1937 436.939 43.1937ZM436.579 48.8389C435.538 48.8389 434.751 48.0968 434.751 46.8644C434.751 45.632 435.538 44.8899 436.579 44.8899C437.62 44.8899 438.407 45.632 438.407 46.8644C438.407 48.0968 437.62 48.8389 436.579 48.8389Z" fill="#0019FF"/>
<path d="M445.977 48.6269C445.75 48.7992 445.443 48.8919 445.137 48.8919C444.576 48.8919 444.243 48.5607 444.243 47.9511V45.0489H446.03V43.4587H444.243V41.7227H442.161V43.4587H441.054V45.0489H442.161V47.9776C442.161 49.6738 443.149 50.5352 444.843 50.5352C445.483 50.5352 446.11 50.3894 446.537 50.0846L445.977 48.6269Z" fill="#0019FF"/>
<path d="M448.746 42.3058C449.52 42.3058 450.04 41.8022 450.04 41.1132C450.04 40.4771 449.52 40 448.746 40C447.972 40 447.452 40.5036 447.452 41.1529C447.452 41.8022 447.972 42.3058 448.746 42.3058ZM447.706 50.4292H449.787V43.2997H447.706V50.4292Z" fill="#0019FF"/>
<path d="M455.134 50.5352C457.415 50.5352 459.069 49.0112 459.069 46.8644C459.069 44.7176 457.415 43.1937 455.134 43.1937C452.852 43.1937 451.185 44.7176 451.185 46.8644C451.185 49.0112 452.852 50.5352 455.134 50.5352ZM455.134 48.8389C454.093 48.8389 453.293 48.0968 453.293 46.8644C453.293 45.632 454.093 44.8899 455.134 44.8899C456.174 44.8899 456.961 45.632 456.961 46.8644C456.961 48.0968 456.174 48.8389 455.134 48.8389Z" fill="#0019FF"/>
<path d="M464.823 43.1937C463.849 43.1937 463.009 43.525 462.448 44.1346V43.2997H460.46V50.4292H462.542V46.9042C462.542 45.5923 463.262 44.9827 464.263 44.9827C465.183 44.9827 465.717 45.5127 465.717 46.6656V50.4292H467.798V46.3476C467.798 44.1743 466.517 43.1937 464.823 43.1937Z" fill="#0019FF"/>
<path d="M475.984 48.6799L478.132 46.6656C479.44 45.4597 479.693 44.6381 479.693 43.737C479.693 42.054 478.306 40.9939 476.224 40.9939C474.543 40.9939 473.236 41.6697 472.516 42.7166L474.09 43.7238C474.543 43.1009 475.224 42.7961 476.024 42.7961C477.012 42.7961 477.519 43.2202 477.519 43.949C477.519 44.3996 477.372 44.8767 476.545 45.6585L472.943 49.0377V50.4292H480V48.6799H475.984Z" fill="#0019FF"/>
<path d="M426.117 74.5882C429.056 74.5882 431.233 72.5607 431.233 69.791C431.233 67.0214 429.056 64.9939 426.117 64.9939C423.164 64.9939 421 67.0347 421 69.791C421 72.5474 423.164 74.5882 426.117 74.5882ZM426.117 72.7594C424.447 72.7594 423.191 71.5535 423.191 69.791C423.191 68.0285 424.447 66.8226 426.117 66.8226C427.787 66.8226 429.042 68.0285 429.042 69.791C429.042 71.5535 427.787 72.7594 426.117 72.7594Z" fill="#00F0FF"/>
<path d="M436.961 67.1937C435.999 67.1937 435.224 67.4985 434.703 68.1213V67.2997H432.713V77H434.797V73.6738C435.331 74.2569 436.066 74.5352 436.961 74.5352C438.978 74.5352 440.541 73.104 440.541 70.8644C440.541 68.6249 438.978 67.1937 436.961 67.1937ZM436.6 72.8389C435.558 72.8389 434.77 72.0968 434.77 70.8644C434.77 69.632 435.558 68.8899 436.6 68.8899C437.642 68.8899 438.43 69.632 438.43 70.8644C438.43 72.0968 437.642 72.8389 436.6 72.8389Z" fill="#00F0FF"/>
<path d="M446.011 72.6269C445.784 72.7992 445.477 72.8919 445.169 72.8919C444.608 72.8919 444.274 72.5607 444.274 71.9511V69.0489H446.064V67.4587H444.274V65.7227H442.19V67.4587H441.081V69.0489H442.19V71.9776C442.19 73.6738 443.179 74.5352 444.875 74.5352C445.517 74.5352 446.145 74.3894 446.572 74.0846L446.011 72.6269Z" fill="#00F0FF"/>
<path d="M448.784 66.3058C449.559 66.3058 450.08 65.8022 450.08 65.1132C450.08 64.4771 449.559 64 448.784 64C448.009 64 447.488 64.5036 447.488 65.1529C447.488 65.8022 448.009 66.3058 448.784 66.3058ZM447.742 74.4292H449.826V67.2997H447.742V74.4292Z" fill="#00F0FF"/>
<path d="M455.18 74.5352C457.465 74.5352 459.121 73.0112 459.121 70.8644C459.121 68.7176 457.465 67.1937 455.18 67.1937C452.896 67.1937 451.226 68.7176 451.226 70.8644C451.226 73.0112 452.896 74.5352 455.18 74.5352ZM455.18 72.8389C454.138 72.8389 453.336 72.0968 453.336 70.8644C453.336 69.632 454.138 68.8899 455.18 68.8899C456.222 68.8899 457.01 69.632 457.01 70.8644C457.01 72.0968 456.222 72.8389 455.18 72.8389Z" fill="#00F0FF"/>
<path d="M464.883 67.1937C463.907 67.1937 463.066 67.525 462.505 68.1346V67.2997H460.514V74.4292H462.598V70.9042C462.598 69.5923 463.32 68.9827 464.321 68.9827C465.243 68.9827 465.778 69.5127 465.778 70.6656V74.4292H467.862V70.3476C467.862 68.1743 466.579 67.1937 464.883 67.1937Z" fill="#00F0FF"/>
<path d="M477.462 68.9297L479.573 66.5443V65.1529H473.026V66.8756H477.008L475.084 69.0357V70.4536H476.072C477.301 70.4536 477.822 70.8909 477.822 71.5933C477.822 72.3486 477.154 72.7859 476.072 72.7859C475.097 72.7859 474.109 72.4811 473.401 71.9511L472.559 73.5943C473.467 74.2304 474.817 74.5882 476.126 74.5882C478.784 74.5882 480 73.157 480 71.5933C480 70.2283 479.145 69.1947 477.462 68.9297Z" fill="#00F0FF"/>
<path fill-rule="evenodd" clip-rule="evenodd" d="M0 171H276V180H275.262V171.72H0.737968V180H0V171Z" fill="#9F9F9F"/>
<path fill-rule="evenodd" clip-rule="evenodd" d="M393 171H576V180H575.259V171.72H393.741V180H393V171Z" fill="#9F9F9F"/>
<path fill-rule="evenodd" clip-rule="evenodd" d="M130 143V108H131V143H130Z" fill="#9F9F9F"/>
<path fill-rule="evenodd" clip-rule="evenodd" d="M484 143V108H485V143H484Z" fill="#9F9F9F"/>
</svg>
