<svg width="443" height="408" viewBox="0 0 443 408" fill="none" xmlns="http://www.w3.org/2000/svg">
<path d="M118.328 351.264C119.696 350.544 120.56 349.248 120.56 347.568C120.56 344.952 118.4 343.2 114.2 343.2H105.992V360H114.68C119.096 360 121.4 358.32 121.4 355.416C121.4 353.304 120.2 351.864 118.328 351.264ZM113.72 346.128C115.616 346.128 116.648 346.776 116.648 348.096C116.648 349.416 115.616 350.088 113.72 350.088H109.856V346.128H113.72ZM114.392 357.072H109.856V352.92H114.392C116.408 352.92 117.488 353.592 117.488 355.008C117.488 356.448 116.408 357.072 114.392 357.072ZM130.464 360.192C134.568 360.192 137.544 357.432 137.544 353.544C137.544 349.656 134.568 346.896 130.464 346.896C126.36 346.896 123.36 349.656 123.36 353.544C123.36 357.432 126.36 360.192 130.464 360.192ZM130.464 357.12C128.592 357.12 127.152 355.776 127.152 353.544C127.152 351.312 128.592 349.968 130.464 349.968C132.336 349.968 133.752 351.312 133.752 353.544C133.752 355.776 132.336 357.12 130.464 357.12ZM140.286 360H144.03V342.192H140.286V360ZM157.153 342.192V348.456C156.217 347.4 154.873 346.896 153.289 346.896C149.641 346.896 146.833 349.488 146.833 353.544C146.833 357.6 149.641 360.192 153.289 360.192C155.017 360.192 156.385 359.64 157.321 358.512V360H160.897V342.192H157.153ZM153.937 357.12C152.065 357.12 150.625 355.776 150.625 353.544C150.625 351.312 152.065 349.968 153.937 349.968C155.785 349.968 157.225 351.312 157.225 353.544C157.225 355.776 155.785 357.12 153.937 357.12Z" fill="black"/>
<path d="M45.08 3.8L34.244 22.484L23.3 3.8H21.104V29H23.66V8.948L33.56 25.796H34.82L44.72 8.84V29H47.276V3.8H45.08ZM62.6868 29.18C68.2308 29.18 72.2988 25.148 72.2988 19.532C72.2988 13.916 68.2308 9.92 62.6868 9.92C57.1428 9.92 53.0388 13.916 53.0388 19.532C53.0388 25.148 57.1428 29.18 62.6868 29.18ZM62.6868 26.912C58.6548 26.912 55.6308 23.96 55.6308 19.532C55.6308 15.104 58.6548 12.152 62.6868 12.152C66.7188 12.152 69.7068 15.104 69.7068 19.532C69.7068 23.96 66.7188 26.912 62.6868 26.912ZM87.1651 9.92C83.8891 9.92 81.3331 11.252 79.9651 13.556V10.064H77.5171V29H80.0731V19.064C80.0731 14.744 82.6291 12.224 86.6971 12.224C90.2971 12.224 92.3851 14.276 92.3851 18.272V29H94.9411V18.02C94.9411 12.584 91.7731 9.92 87.1651 9.92ZM110.952 26.012C110.232 26.66 109.188 26.984 108.144 26.984C106.02 26.984 104.868 25.76 104.868 23.528V12.224H110.628V10.064H104.868V5.924H102.312V10.064H98.9284V12.224H102.312V23.672C102.312 27.164 104.292 29.18 107.856 29.18C109.332 29.18 110.844 28.748 111.852 27.848L110.952 26.012ZM121.581 29.18C126.513 29.18 129.393 27.056 129.393 23.78C129.393 16.508 117.117 20.36 117.117 15.248C117.117 13.448 118.629 12.116 122.049 12.116C123.993 12.116 125.973 12.584 127.629 13.736L128.745 11.684C127.161 10.604 124.497 9.92 122.049 9.92C117.225 9.92 114.561 12.224 114.561 15.32C114.561 22.808 126.837 18.92 126.837 23.852C126.837 25.724 125.361 26.948 121.761 26.948C119.097 26.948 116.541 26.012 115.029 24.824L113.877 26.84C115.425 28.172 118.449 29.18 121.581 29.18ZM150.643 19.532C150.643 13.844 146.791 9.92 141.463 9.92C136.135 9.92 132.211 13.916 132.211 19.532C132.211 25.148 136.243 29.18 142.147 29.18C145.135 29.18 147.763 28.1 149.455 26.084L148.015 24.428C146.575 26.084 144.523 26.912 142.219 26.912C138.079 26.912 135.055 24.284 134.767 20.324H150.607C150.607 20.036 150.643 19.748 150.643 19.532ZM141.463 12.116C145.171 12.116 147.871 14.708 148.195 18.416H134.767C135.091 14.708 137.791 12.116 141.463 12.116ZM158.293 13.772V10.064H155.845V29H158.401V19.352C158.401 14.888 160.813 12.368 164.773 12.368C164.953 12.368 165.169 12.404 165.385 12.404V9.92C161.893 9.92 159.481 11.252 158.293 13.772ZM172.461 13.772V10.064H170.013V29H172.569V19.352C172.569 14.888 174.981 12.368 178.941 12.368C179.121 12.368 179.337 12.404 179.553 12.404V9.92C176.061 9.92 173.649 11.252 172.461 13.772ZM190.77 9.92C187.782 9.92 184.974 10.856 183.066 12.476L184.218 14.384C185.766 13.016 188.07 12.152 190.518 12.152C194.046 12.152 195.882 13.916 195.882 17.156V18.308H189.87C184.434 18.308 182.562 20.756 182.562 23.672C182.562 26.948 185.19 29.18 189.474 29.18C192.606 29.18 194.838 27.992 195.99 26.048V29H198.438V17.264C198.438 12.368 195.666 9.92 190.77 9.92ZM189.87 27.164C186.846 27.164 185.082 25.796 185.082 23.6C185.082 21.656 186.27 20.216 189.942 20.216H195.882V23.312C194.874 25.796 192.75 27.164 189.87 27.164ZM214.452 26.012C213.732 26.66 212.688 26.984 211.644 26.984C209.52 26.984 208.368 25.76 208.368 23.528V12.224H214.128V10.064H208.368V5.924H205.812V10.064H202.428V12.224H205.812V23.672C205.812 27.164 207.792 29.18 211.356 29.18C212.832 29.18 214.344 28.748 215.352 27.848L214.452 26.012Z" fill="black"/>
<path d="M126.212 302.824C127.7 303.376 128.852 304.18 129.668 305.236C130.484 306.292 130.892 307.564 130.892 309.052C130.892 311.26 129.98 312.976 128.156 314.2C126.332 315.4 123.692 316 120.236 316H106.052V290.8H119.516C122.876 290.8 125.408 291.4 127.112 292.6C128.84 293.8 129.704 295.396 129.704 297.388C129.704 298.564 129.404 299.62 128.804 300.556C128.228 301.492 127.364 302.248 126.212 302.824ZM114.404 296.74V300.484H118.364C120.212 300.484 121.136 299.86 121.136 298.612C121.136 297.364 120.212 296.74 118.364 296.74H114.404ZM119.516 310.06C121.388 310.06 122.324 309.4 122.324 308.08C122.324 306.76 121.388 306.1 119.516 306.1H114.404V310.06H119.516ZM134.004 289.288H142.14V316H134.004V289.288ZM154.926 295.948C158.382 295.948 161.022 296.728 162.846 298.288C164.67 299.824 165.582 302.2 165.582 305.416V316H158.022V313.408C157.086 315.376 155.226 316.36 152.442 316.36C150.882 316.36 149.55 316.096 148.446 315.568C147.366 315.016 146.538 314.284 145.962 313.372C145.41 312.436 145.134 311.392 145.134 310.24C145.134 308.296 145.878 306.82 147.366 305.812C148.854 304.804 151.11 304.3 154.134 304.3H157.41C157.146 302.764 155.91 301.996 153.702 301.996C152.814 301.996 151.914 302.14 151.002 302.428C150.09 302.692 149.31 303.064 148.662 303.544L146.07 298.18C147.198 297.484 148.554 296.944 150.138 296.56C151.746 296.152 153.342 295.948 154.926 295.948ZM154.89 311.464C155.466 311.464 155.982 311.308 156.438 310.996C156.894 310.684 157.23 310.216 157.446 309.592V308.224H155.43C153.774 308.224 152.946 308.776 152.946 309.88C152.946 310.336 153.114 310.72 153.45 311.032C153.81 311.32 154.29 311.464 154.89 311.464ZM180.394 316.36C178.162 316.36 176.158 315.928 174.382 315.064C172.63 314.2 171.25 312.988 170.242 311.428C169.258 309.868 168.766 308.104 168.766 306.136C168.766 304.168 169.258 302.416 170.242 300.88C171.25 299.32 172.63 298.108 174.382 297.244C176.158 296.38 178.162 295.948 180.394 295.948C182.794 295.948 184.846 296.464 186.55 297.496C188.254 298.528 189.43 299.956 190.078 301.78L183.778 304.876C183.01 303.148 181.87 302.284 180.358 302.284C179.398 302.284 178.594 302.62 177.946 303.292C177.322 303.964 177.01 304.912 177.01 306.136C177.01 307.384 177.322 308.344 177.946 309.016C178.594 309.688 179.398 310.024 180.358 310.024C181.87 310.024 183.01 309.16 183.778 307.432L190.078 310.528C189.43 312.352 188.254 313.78 186.55 314.812C184.846 315.844 182.794 316.36 180.394 316.36ZM201.75 309.952L200.454 311.356V316H192.318V289.288H200.454V302.032L206.106 296.308H215.718L207.582 304.84L216.366 316H206.538L201.75 309.952Z" fill="black"/>
<path d="M120.152 403L116.048 397.24C118.496 396.448 119.888 394.6 119.888 391.96C119.888 388.36 117.296 386.2 113.024 386.2H106.736V403H108.512V397.672H113.024C113.504 397.672 113.936 397.648 114.368 397.6L118.208 403H120.152ZM112.976 396.16H108.512V387.736H112.976C116.336 387.736 118.112 389.272 118.112 391.96C118.112 394.6 116.336 396.16 112.976 396.16ZM134.496 396.688C134.496 392.896 131.928 390.28 128.376 390.28C124.824 390.28 122.208 392.944 122.208 396.688C122.208 400.432 124.896 403.12 128.832 403.12C130.824 403.12 132.576 402.4 133.704 401.056L132.744 399.952C131.784 401.056 130.416 401.608 128.88 401.608C126.12 401.608 124.104 399.856 123.912 397.216H134.472C134.472 397.024 134.496 396.832 134.496 396.688ZM128.376 391.744C130.848 391.744 132.648 393.472 132.864 395.944H123.912C124.128 393.472 125.928 391.744 128.376 391.744ZM147.78 390.376V392.8C146.724 391.144 144.9 390.28 142.788 390.28C139.188 390.28 136.452 392.752 136.452 396.376C136.452 400 139.188 402.52 142.788 402.52C144.852 402.52 146.652 401.68 147.708 400.072V401.68C147.708 404.8 146.244 406.264 143.052 406.264C141.108 406.264 139.284 405.616 138.084 404.536L137.22 405.832C138.54 407.08 140.796 407.776 143.1 407.776C147.276 407.776 149.412 405.808 149.412 401.464V390.376H147.78ZM142.956 401.008C140.172 401.008 138.18 399.112 138.18 396.376C138.18 393.64 140.172 391.768 142.956 391.768C145.74 391.768 147.756 393.64 147.756 396.376C147.756 399.112 145.74 401.008 142.956 401.008ZM163.609 390.376V397C163.609 399.88 161.953 401.584 159.313 401.584C156.913 401.584 155.521 400.216 155.521 397.528V390.376H153.817V397.696C153.817 401.32 155.929 403.12 159.145 403.12C161.161 403.12 162.793 402.232 163.681 400.696V403H165.313V390.376H163.609ZM169.846 403H171.55V385.192H169.846V403ZM180.467 390.28C178.475 390.28 176.603 390.904 175.331 391.984L176.099 393.256C177.131 392.344 178.667 391.768 180.299 391.768C182.651 391.768 183.875 392.944 183.875 395.104V395.872H179.867C176.243 395.872 174.995 397.504 174.995 399.448C174.995 401.632 176.747 403.12 179.603 403.12C181.691 403.12 183.179 402.328 183.947 401.032V403H185.579V395.176C185.579 391.912 183.731 390.28 180.467 390.28ZM179.867 401.776C177.851 401.776 176.675 400.864 176.675 399.4C176.675 398.104 177.467 397.144 179.915 397.144H183.875V399.208C183.203 400.864 181.787 401.776 179.867 401.776ZM191.599 392.848V390.376H189.967V403H191.671V396.568C191.671 393.592 193.279 391.912 195.919 391.912C196.039 391.912 196.183 391.936 196.327 391.936V390.28C193.999 390.28 192.391 391.168 191.599 392.848Z" fill="black"/>
<path d="M20.216 70.2V71.736H24.176V87H25.904V70.2H20.216ZM43.2331 85.464L48.9451 79.848C51.2011 77.64 51.7051 76.2 51.7051 74.592C51.7051 71.784 49.5451 70.056 46.1371 70.056C43.5691 70.056 41.4811 70.92 40.1851 72.456L41.4091 73.512C42.5131 72.24 44.0251 71.64 45.9931 71.64C48.5611 71.64 49.9291 72.84 49.9291 74.784C49.9291 75.936 49.5691 77.064 47.6731 78.936L40.6891 85.776V87H52.4731V85.464H43.2331ZM71.435 77.4L76.187 71.424V70.2H65.387V71.736H73.979L69.323 77.568V78.84H70.523C73.643 78.84 75.059 80.16 75.059 82.176C75.059 84.264 73.523 85.56 70.739 85.56C68.555 85.56 66.611 84.744 65.531 83.616L64.691 84.984C65.987 86.304 68.315 87.144 70.739 87.144C74.795 87.144 76.835 84.984 76.835 82.176C76.835 79.488 75.035 77.592 71.435 77.4ZM104.631 81.048H101.271V77.16H99.5911V81.048H92.2951L100.887 70.2H98.9671L90.0631 81.336V82.584H99.5431V87H101.271V82.584H104.631V81.048ZM121.716 77.088H119.556L120.132 71.736H127.812V70.2H118.62L117.756 78.624H121.332C125.604 78.624 126.948 79.968 126.948 82.128C126.948 84.168 125.436 85.56 122.58 85.56C120.42 85.56 118.5 84.744 117.42 83.616L116.58 84.984C117.876 86.304 120.18 87.144 122.604 87.144C126.708 87.144 128.7 84.912 128.7 82.056C128.7 79.08 126.78 77.088 121.716 77.088ZM148.935 76.944C146.607 76.944 144.639 77.976 143.799 79.824C143.751 79.32 143.727 78.84 143.727 78.456C143.727 73.896 146.055 71.568 149.679 71.568C150.927 71.568 152.079 71.784 152.943 72.36L153.639 70.968C152.583 70.32 151.167 70.056 149.655 70.056C145.095 70.056 141.975 73.032 141.975 78.744C141.975 84.048 144.399 87.144 148.863 87.144C152.127 87.144 154.599 85.128 154.599 81.984C154.599 78.912 152.271 76.944 148.935 76.944ZM148.791 85.68C145.887 85.68 144.351 83.928 144.351 82.08C144.351 79.992 146.103 78.408 148.671 78.408C151.263 78.408 152.895 79.824 152.895 82.032C152.895 84.264 151.215 85.68 148.791 85.68ZM167.201 70.2V74.88H168.905V71.736H177.545L170.633 87H172.505L179.537 71.424V70.2H167.201ZM202.519 78.192C204.247 77.52 205.207 76.248 205.207 74.496C205.207 71.76 202.831 70.056 199.279 70.056C195.727 70.056 193.399 71.76 193.399 74.496C193.399 76.248 194.335 77.52 196.039 78.192C193.951 78.888 192.799 80.304 192.799 82.32C192.799 85.296 195.247 87.144 199.279 87.144C203.287 87.144 205.807 85.296 205.807 82.32C205.807 80.328 204.631 78.888 202.519 78.192ZM195.127 74.544C195.127 72.672 196.735 71.52 199.279 71.52C201.799 71.52 203.455 72.672 203.455 74.568C203.455 76.392 201.895 77.568 199.279 77.568C196.663 77.568 195.127 76.392 195.127 74.544ZM199.279 85.68C196.303 85.68 194.551 84.384 194.551 82.296C194.551 80.232 196.303 78.936 199.279 78.936C202.255 78.936 204.031 80.232 204.031 82.296C204.031 84.384 202.255 85.68 199.279 85.68ZM224.513 70.056C221.249 70.056 218.777 72.072 218.777 75.216C218.777 78.288 221.105 80.256 224.441 80.256C226.769 80.256 228.737 79.224 229.577 77.376C229.625 77.88 229.649 78.36 229.649 78.744C229.649 83.304 227.321 85.632 223.697 85.632C222.449 85.632 221.297 85.416 220.433 84.84L219.737 86.232C220.793 86.88 222.209 87.144 223.721 87.144C228.281 87.144 231.401 84.168 231.401 78.456C231.401 73.152 228.977 70.056 224.513 70.056ZM224.705 78.792C222.113 78.792 220.481 77.376 220.481 75.168C220.481 72.936 222.161 71.52 224.585 71.52C227.489 71.52 229.025 73.272 229.025 75.12C229.025 77.208 227.273 78.792 224.705 78.792ZM251.683 87.144C255.571 87.144 258.403 83.952 258.403 78.6C258.403 73.248 255.571 70.056 251.683 70.056C247.795 70.056 244.987 73.248 244.987 78.6C244.987 83.952 247.795 87.144 251.683 87.144ZM251.683 85.56C248.755 85.56 246.739 83.088 246.739 78.6C246.739 74.112 248.755 71.64 251.683 71.64C254.611 71.64 256.627 74.112 256.627 78.6C256.627 83.088 254.611 85.56 251.683 85.56ZM35.6 118H37.472L29.792 101.2H28.04L20.36 118H22.208L24.224 113.512H33.584L35.6 118ZM24.872 112.072L28.904 103.048L32.936 112.072H24.872ZM47.0274 105.28C45.0354 105.28 43.1634 105.904 41.8914 106.984L42.6594 108.256C43.6914 107.344 45.2274 106.768 46.8594 106.768C49.2114 106.768 50.4354 107.944 50.4354 110.104V110.872H46.4274C42.8034 110.872 41.5554 112.504 41.5554 114.448C41.5554 116.632 43.3074 118.12 46.1634 118.12C48.2514 118.12 49.7394 117.328 50.5074 116.032V118H52.1394V110.176C52.1394 106.912 50.2914 105.28 47.0274 105.28ZM46.4274 116.776C44.4114 116.776 43.2354 115.864 43.2354 114.4C43.2354 113.104 44.0274 112.144 46.4754 112.144H50.4354V114.208C49.7634 115.864 48.3474 116.776 46.4274 116.776ZM68.1648 118H75.0288C79.1808 118 81.4848 116.224 81.4848 112.984C81.4848 109.864 79.3728 108.208 75.4128 108.208H69.9168V102.712H80.4528V101.2H68.1648V118ZM69.9168 116.584V109.624H75.0048C78.1488 109.624 79.7088 110.728 79.7088 113.056C79.7088 115.384 78.1008 116.584 75.0048 116.584H69.9168ZM93.7143 105.688C91.3383 105.688 89.4423 106.864 88.4343 108.808C88.6023 104.776 90.2343 102.976 93.8103 102.184L99.1383 100.96L98.8503 99.4L93.1863 100.696C88.8903 101.704 86.8023 104.344 86.8023 109.84C86.8023 114.976 89.1543 118.144 93.4023 118.144C97.1703 118.144 99.7623 115.576 99.7623 111.856C99.7623 108.208 97.2663 105.688 93.7143 105.688ZM93.4503 116.728C90.7623 116.728 88.8423 114.736 88.8423 111.904C88.8423 109.096 90.7383 107.224 93.4503 107.224C96.1623 107.224 98.0343 109.096 98.0343 111.904C98.0343 114.736 96.1383 116.728 93.4503 116.728ZM124.864 109.336C126.544 108.712 127.6 107.44 127.6 105.496C127.6 102.688 125.416 101.2 121.888 101.2H114.904V118H122.344C126.4 118 128.44 116.344 128.44 113.464C128.44 111.232 127.216 109.816 124.864 109.336ZM116.656 102.616H121.792C124.36 102.616 125.824 103.696 125.824 105.712C125.824 107.752 124.36 108.808 121.792 108.808H116.656V102.616ZM122.344 116.584H116.656V110.176H122.344C125.176 110.176 126.688 111.16 126.688 113.344C126.688 115.552 125.176 116.584 122.344 116.584ZM142.912 111.472C144.232 110.992 145.048 110.032 145.048 108.616C145.048 106.528 143.296 105.376 140.44 105.376H134.872V118H140.608C143.896 118 145.48 116.752 145.48 114.568C145.48 112.912 144.664 111.88 142.912 111.472ZM136.528 106.72H140.32C142.264 106.72 143.344 107.416 143.344 108.832C143.344 110.248 142.264 110.992 140.32 110.992H136.528V106.72ZM140.536 116.656H136.528V112.264H140.704C142.84 112.264 143.8 112.96 143.8 114.472C143.8 115.984 142.672 116.656 140.536 116.656ZM171.643 101.2H160.963V118H162.715L162.691 102.736H171.643V101.2ZM182.735 105.376H173.807V118H175.511V106.888H182.735V105.376ZM209.599 116.464V101.2H198.271L198.079 106.648C197.911 112 197.383 116.32 194.983 116.464H194.143L194.119 121.768H195.775L195.799 118H210.463V121.768H212.119V116.464H209.599ZM199.663 106.816L199.807 102.736H207.847V116.464H197.503C199.111 115.24 199.519 111.184 199.663 106.816ZM228.077 116.512V105.376H218.765L218.597 109.6C218.429 113.008 218.117 116.392 216.245 116.512H215.525V121.048H217.133V118H228.437V121.048H230.045V116.512H228.077ZM220.157 109.696L220.301 106.888H226.373V116.512H218.501C219.773 115.552 220.037 112.576 220.157 109.696ZM246.631 116.464V110.224H255.319V108.712H246.631V102.736H256.375V101.2H244.855V118H256.735V116.464H246.631ZM273.544 111.688C273.544 107.896 270.976 105.28 267.424 105.28C263.872 105.28 261.256 107.944 261.256 111.688C261.256 115.432 263.944 118.12 267.88 118.12C269.872 118.12 271.624 117.4 272.752 116.056L271.792 114.952C270.832 116.056 269.464 116.608 267.928 116.608C265.168 116.608 263.152 114.856 262.96 112.216H273.52C273.52 112.024 273.544 111.832 273.544 111.688ZM267.424 106.744C269.896 106.744 271.696 108.472 271.912 110.944H262.96C263.176 108.472 264.976 106.744 267.424 106.744ZM292.453 99.28C293.005 99.28 293.485 98.848 293.485 98.248C293.485 97.672 293.005 97.216 292.453 97.216C291.877 97.216 291.421 97.672 291.421 98.248C291.421 98.848 291.877 99.28 292.453 99.28ZM296.725 99.28C297.301 99.28 297.757 98.848 297.757 98.248C297.757 97.672 297.301 97.216 296.725 97.216C296.173 97.216 295.693 97.672 295.693 98.248C295.693 98.848 296.173 99.28 296.725 99.28ZM290.581 116.464V110.224H299.269V108.712H290.581V102.736H300.325V101.2H288.805V118H300.685V116.464H290.581ZM309.238 102.88C309.79 102.88 310.27 102.448 310.27 101.848C310.27 101.272 309.79 100.816 309.238 100.816C308.662 100.816 308.206 101.272 308.206 101.848C308.206 102.448 308.662 102.88 309.238 102.88ZM313.51 102.88C314.086 102.88 314.542 102.448 314.542 101.848C314.542 101.272 314.086 100.816 313.51 100.816C312.958 100.816 312.478 101.272 312.478 101.848C312.478 102.448 312.958 102.88 313.51 102.88ZM317.494 111.688C317.494 107.896 314.926 105.28 311.374 105.28C307.822 105.28 305.206 107.944 305.206 111.688C305.206 115.432 307.894 118.12 311.83 118.12C313.822 118.12 315.574 117.4 316.702 116.056L315.742 114.952C314.782 116.056 313.414 116.608 311.878 116.608C309.118 116.608 307.102 114.856 306.91 112.216H317.47C317.47 112.024 317.494 111.832 317.494 111.688ZM311.374 106.744C313.846 106.744 315.646 108.472 315.862 110.944H306.91C307.126 108.472 308.926 106.744 311.374 106.744ZM351.547 118H353.611L347.851 109.336L353.179 101.2H351.259L346.411 108.736H342.931V101.2H341.203V108.736H337.675L332.851 101.2H330.931L336.259 109.336L330.499 118H332.563L337.699 110.296H341.203V118H342.931V110.296H346.411L351.547 118ZM373.113 118H375.153L370.617 111.52L374.793 105.376H372.945L369.225 110.92H366.489V105.376H364.785V110.92H362.049L358.353 105.376H356.505L360.681 111.496L356.145 118H358.185L362.049 112.384H364.785V118H366.489V112.384H369.225L373.113 118ZM396.775 109.216C398.551 108.664 399.607 107.32 399.607 105.52C399.607 102.64 396.775 100.96 393.415 100.96C391.639 100.96 389.743 101.416 388.015 102.448L388.615 103.912C390.127 102.952 391.831 102.52 393.367 102.52C395.815 102.52 397.831 103.672 397.831 105.712C397.831 107.512 396.439 108.568 394.063 108.568H390.559V110.008H394.159C396.919 110.008 398.551 111.088 398.551 113.056C398.551 115.336 396.199 116.632 393.511 116.632C391.663 116.632 389.647 116.008 388.135 114.712L387.487 115.984C389.263 117.472 391.567 118.144 393.703 118.144C397.207 118.144 400.327 116.344 400.327 113.296C400.327 111.256 398.983 109.768 396.775 109.216ZM412.873 111.424C414.337 110.944 415.321 109.936 415.321 108.616C415.321 106.552 413.113 105.232 410.233 105.232C408.697 105.232 407.113 105.592 405.553 106.408L406.033 107.728C407.377 107.032 408.769 106.696 410.065 106.696C412.081 106.696 413.569 107.464 413.569 108.856C413.569 110.104 412.273 110.848 410.425 110.848H408.361V112.096H410.521C412.633 112.096 413.929 112.888 413.929 114.232C413.929 115.768 412.225 116.68 409.945 116.68C408.409 116.68 406.777 116.2 405.601 115.312L405.025 116.584C406.369 117.616 408.217 118.144 410.017 118.144C413.161 118.144 415.681 116.656 415.681 114.376C415.681 112.888 414.649 111.832 412.873 111.424ZM22.832 149H24.44L35.192 135.104V149H36.944V132.2H35.336L24.584 146.12V132.2H22.832V149ZM44.6052 149H46.1412L54.5413 138.968V149H56.2453V136.376H54.7332L46.3092 146.408V136.376H44.6052V149ZM79.6259 130.976C82.0019 130.976 83.4899 129.824 83.5379 127.88H82.2179C82.1699 129.176 81.1379 129.944 79.6259 129.944C78.0899 129.944 77.0579 129.176 77.0339 127.88H75.7139C75.7379 129.824 77.2259 130.976 79.6259 130.976ZM72.6179 149H74.2259L84.9779 135.104V149H86.7299V132.2H85.1219L74.3699 146.12V132.2H72.6179V149ZM100.127 134.576C102.263 134.576 103.679 133.472 103.727 131.456H102.503C102.455 132.728 101.495 133.52 100.127 133.52C98.7592 133.52 97.7992 132.728 97.7752 131.456H96.5512C96.5992 133.472 97.9912 134.576 100.127 134.576ZM94.3912 149H95.9272L104.327 138.968V149H106.031V136.376H104.519L96.0952 146.408V136.376H94.3912V149ZM133.9 149H135.94L129.34 140.36L135.58 132.2H133.66L127.972 139.736H124.132V132.2H122.404V149H124.132V141.296H127.972L133.9 149ZM150.253 149H152.269L146.941 142.496L151.909 136.376H150.061L145.621 141.92H142.717V136.376H141.013V149H142.717V143.384H145.597L150.253 149ZM168.224 132.2L167.984 139.4C167.768 145.064 166.952 147.512 164.816 147.512C164.552 147.512 164.336 147.488 164.024 147.416L163.88 149C164.384 149.12 164.792 149.168 165.224 149.168C168.272 149.168 169.328 146.072 169.568 139.352L169.76 133.736H177.872V149H179.624V132.2H168.224ZM188.363 136.376L188.147 140.888C187.979 144.224 187.787 147.608 185.699 147.608C185.531 147.608 185.315 147.56 185.099 147.512L184.979 148.976C185.435 149.096 185.819 149.168 186.203 149.168C188.915 149.168 189.467 145.424 189.683 141.008L189.851 137.888H195.899V149H197.603V136.376H188.363ZM229.921 132.2L222.697 144.656L215.401 132.2H213.937V149H215.641V135.632L222.241 146.864H223.081L229.681 135.56V149H231.385V132.2H229.921ZM251.566 136.376L246.118 145.472L240.766 136.376H239.038V149H240.598V138.992L245.71 147.464H246.478L251.59 139.016V149H253.15V136.376H251.566ZM281.776 132.2V139.688H271.264V132.2H269.488V149H271.264V141.248H281.776V149H283.528V132.2H281.776ZM291.191 149H292.895V143.432H300.839V149H302.543V136.376H300.839V141.968H292.895V136.376H291.191V149ZM326.244 149.144C331.284 149.144 335.052 145.52 335.052 140.6C335.052 135.68 331.284 132.056 326.244 132.056C321.156 132.056 317.412 135.704 317.412 140.6C317.412 145.496 321.156 149.144 326.244 149.144ZM326.244 147.56C322.188 147.56 319.164 144.608 319.164 140.6C319.164 136.592 322.188 133.64 326.244 133.64C330.276 133.64 333.276 136.592 333.276 140.6C333.276 144.608 330.276 147.56 326.244 147.56ZM346.49 149.12C350.186 149.12 352.898 146.432 352.898 142.688C352.898 138.944 350.186 136.28 346.49 136.28C342.794 136.28 340.058 138.944 340.058 142.688C340.058 146.432 342.794 149.12 346.49 149.12ZM346.49 147.608C343.802 147.608 341.786 145.64 341.786 142.688C341.786 139.736 343.802 137.768 346.49 137.768C349.178 137.768 351.17 139.736 351.17 142.688C351.17 145.64 349.178 147.608 346.49 147.608ZM368.029 132.2V149H369.781V133.736H380.413V149H382.165V132.2H368.029ZM389.826 136.376V149H391.53V137.888H399.45V149H401.154V136.376H389.826ZM29.12 163.2H22.832V180H24.608V174.696H29.12C33.392 174.696 35.984 172.536 35.984 168.96C35.984 165.36 33.392 163.2 29.12 163.2ZM29.072 173.136H24.608V164.736H29.072C32.432 164.736 34.208 166.272 34.208 168.96C34.208 171.6 32.432 173.136 29.072 173.136ZM47.8046 167.28C45.7166 167.28 43.9646 168.192 42.9326 169.872V167.376H41.3006V184.656H43.0046V177.624C44.0606 179.256 45.7886 180.12 47.8046 180.12C51.4046 180.12 54.0926 177.528 54.0926 173.688C54.0926 169.872 51.4046 167.28 47.8046 167.28ZM47.6846 178.608C44.9966 178.608 42.9806 176.64 42.9806 173.688C42.9806 170.76 44.9966 168.768 47.6846 168.768C50.3486 168.768 52.3886 170.76 52.3886 173.688C52.3886 176.64 50.3486 178.608 47.6846 178.608ZM76.5869 180.144C79.0589 180.144 81.2669 179.304 82.7549 177.672L81.6269 176.544C80.2589 177.96 78.5789 178.56 76.6589 178.56C72.6029 178.56 69.5549 175.584 69.5549 171.6C69.5549 167.616 72.6029 164.64 76.6589 164.64C78.5789 164.64 80.2589 165.24 81.6269 166.632L82.7549 165.504C81.2669 163.872 79.0589 163.056 76.6109 163.056C71.5469 163.056 67.8029 166.68 67.8029 171.6C67.8029 176.52 71.5469 180.144 76.5869 180.144ZM93.1321 180.12C95.2681 180.12 97.0681 179.256 98.0761 177.624L96.8041 176.76C95.9401 178.032 94.5961 178.608 93.1321 178.608C90.3721 178.608 88.3561 176.664 88.3561 173.688C88.3561 170.736 90.3721 168.768 93.1321 168.768C94.5961 168.768 95.9401 169.368 96.8041 170.64L98.0761 169.776C97.0681 168.12 95.2681 167.28 93.1321 167.28C89.3641 167.28 86.6281 169.92 86.6281 173.688C86.6281 177.456 89.3641 180.12 93.1321 180.12ZM123.857 163.2H110.297V164.736H116.201V180H117.953V164.736H123.857V163.2ZM137.284 167.376H126.028V168.888H130.804V180H132.508V168.888H137.284V167.376ZM162.661 163.2L156.661 174.576L150.805 163.2H148.909L155.725 176.136L155.245 176.952C154.477 178.248 153.541 178.752 152.533 178.752C152.029 178.752 151.501 178.632 150.949 178.416L150.445 179.856C151.141 180.144 151.837 180.312 152.509 180.312C154.165 180.312 155.701 179.4 156.805 177.336L164.437 163.2H162.661ZM178.214 167.376L173.462 178.104L168.71 167.376H166.934L172.574 179.976L172.022 181.2C171.302 182.784 170.534 183.312 169.406 183.312C168.494 183.312 167.726 182.976 167.102 182.352L166.31 183.624C167.078 184.392 168.206 184.776 169.382 184.776C171.182 184.776 172.526 183.984 173.582 181.512L179.894 167.376H178.214ZM212.014 171.576C212.014 167.136 208.654 164.496 203.038 164.304V162.624H201.382V164.304C195.742 164.496 192.406 167.112 192.406 171.576C192.406 176.04 195.742 178.656 201.382 178.848V180.576H203.038V178.848C208.678 178.68 212.014 176.04 212.014 171.576ZM203.038 177.432V165.744C207.622 165.912 210.31 167.976 210.31 171.576C210.31 175.176 207.646 177.24 203.038 177.432ZM194.11 171.576C194.11 167.976 196.75 165.936 201.382 165.744V177.432C196.822 177.216 194.11 175.2 194.11 171.576ZM233.278 173.664C233.278 169.776 230.542 167.496 225.838 167.28V162.192H224.182V167.28C219.478 167.472 216.79 169.752 216.79 173.664C216.79 177.624 219.502 179.952 224.182 180.144V184.656H225.838V180.12C230.542 179.928 233.278 177.624 233.278 173.664ZM218.47 173.664C218.47 170.736 220.438 168.984 224.182 168.792V178.632C220.438 178.416 218.47 176.664 218.47 173.664ZM225.838 178.632V168.792C229.606 168.984 231.598 170.712 231.598 173.664C231.598 176.688 229.606 178.44 225.838 178.632ZM246.499 163.2L252.235 171.336L246.067 180H248.107L253.315 172.776L258.523 180H260.611L254.419 171.264L260.155 163.2H258.067L253.315 169.848L248.539 163.2H246.499ZM274.969 180L269.929 173.52L274.681 167.376H272.809L269.017 172.32L265.225 167.376H263.305L268.057 173.52L263.065 180H264.985L269.017 174.72L273.025 180H274.969ZM302.907 178.464V163.2H301.155V178.464H291.003V163.2H289.251V180H303.915V183.936H305.571V178.464H302.907ZM322.206 178.512V167.376H320.502V178.512H312.798V167.376H311.094V180H322.638V183.168H324.246V178.512H322.206ZM349.118 163.2V171.456C347.39 172.248 345.614 172.656 343.982 172.656C341.054 172.656 339.326 171.168 339.326 168.552V163.2H337.574V168.744C337.574 172.2 339.878 174.216 343.814 174.216C345.446 174.216 347.27 173.832 349.118 173.04V180H350.846V163.2H349.118ZM366.36 167.376V173.376C364.944 173.976 363.6 174.312 362.376 174.312C360.264 174.312 358.944 173.352 358.944 171.432V167.376H357.24V171.528C357.24 174.384 359.112 175.704 362.064 175.704C363.48 175.704 364.944 175.368 366.36 174.744V180H368.064V167.376H366.36ZM403.233 163.2V178.464H395.577V163.2H393.825V178.464H386.145V163.2H384.393V180H404.985V163.2H403.233ZM428.355 167.376V178.512H422.235V167.376H420.531V178.512H414.339V167.376H412.635V180H430.059V167.376H428.355ZM43.424 209.464V194.2H41.672V209.464H34.016V194.2H32.264V209.464H24.584V194.2H22.832V211H44.384V214.768H46.04V209.464H43.424ZM69.0605 209.512V198.376H67.3565V209.512H61.2365V198.376H59.5325V209.512H53.3405V198.376H51.6365V211H69.3965V213.76H71.0045V209.512H69.0605ZM95.1108 200.2H89.8308V194.2H82.8468V195.736H88.0788V211H94.7268C98.9028 211 101.207 209.104 101.207 205.48C101.207 202 99.0468 200.2 95.1108 200.2ZM94.7028 209.584H89.8308V201.64H94.7028C97.8228 201.64 99.4548 202.888 99.4548 205.504C99.4548 208.192 97.7988 209.584 94.7028 209.584ZM113.396 202.792H109.772V198.376H104.132V199.888H108.068V211H113.06C116.348 211 118.172 209.536 118.172 206.824C118.172 204.28 116.516 202.792 113.396 202.792ZM113.036 209.68H109.772V204.088H113.036C115.316 204.088 116.444 204.976 116.444 206.824C116.444 208.696 115.292 209.68 113.036 209.68ZM139.936 200.2H134.656V194.2H132.904V211H139.576C143.728 211 146.056 209.104 146.056 205.48C146.056 202 143.896 200.2 139.936 200.2ZM148.96 211H150.712V194.2H148.96V211ZM139.528 209.584H134.656V201.64H139.528C142.672 201.64 144.28 202.888 144.28 205.504C144.28 208.192 142.624 209.584 139.528 209.584ZM163.661 202.84L160.061 202.792V198.376H158.357V211L163.349 211.024C166.685 211.072 168.533 209.56 168.533 206.872C168.533 204.28 166.829 202.864 163.661 202.84ZM170.645 211H172.349V198.376H170.645V211ZM163.253 209.728L160.061 209.68V204.064L163.253 204.112C165.605 204.136 166.805 205 166.805 206.872C166.805 208.768 165.581 209.752 163.253 209.728ZM195.722 200.2H190.442V194.2H188.69V211H195.362C199.514 211 201.842 209.104 201.842 205.48C201.842 202 199.682 200.2 195.722 200.2ZM195.314 209.584H190.442V201.64H195.314C198.458 201.64 200.066 202.888 200.066 205.504C200.066 208.192 198.41 209.584 195.314 209.584ZM213.145 202.84L209.425 202.792V198.376H207.721V211L212.809 211.024C216.169 211.072 217.993 209.56 217.993 206.872C217.993 204.28 216.313 202.864 213.145 202.84ZM212.713 209.728L209.425 209.68V204.064L212.713 204.112C215.065 204.136 216.265 205 216.265 206.872C216.265 208.768 215.041 209.752 212.713 209.728ZM237.078 194.056C234.486 194.056 232.23 194.896 230.742 196.528L231.846 197.656C233.238 196.24 234.99 195.64 237.006 195.64C240.51 195.64 243.222 198.184 243.606 201.712H234.966V203.176H243.63C243.366 206.872 240.606 209.56 237.006 209.56C234.99 209.56 233.238 208.96 231.846 207.544L230.742 208.672C232.23 210.328 234.486 211.144 237.078 211.144C241.854 211.144 245.43 207.52 245.43 202.6C245.43 197.68 241.854 194.056 237.078 194.056ZM254.658 198.28C252.57 198.28 250.746 198.928 249.522 200.2L250.53 201.184C251.634 200.152 253.002 199.672 254.586 199.672C257.274 199.672 259.362 201.424 259.698 203.944H252.978V205.24H259.722C259.458 207.832 257.346 209.728 254.586 209.728C253.002 209.728 251.634 209.248 250.53 208.216L249.522 209.224C250.746 210.496 252.57 211.144 254.658 211.144C258.474 211.144 261.354 208.408 261.354 204.688C261.354 200.968 258.474 198.28 254.658 198.28ZM289.986 194.056C285.498 194.056 282.066 197.224 281.658 201.664H278.178V194.2H276.426V211H278.178V203.272H281.634C281.946 207.856 285.402 211.144 289.986 211.144C294.786 211.144 298.386 207.52 298.386 202.6C298.386 197.68 294.786 194.056 289.986 194.056ZM289.986 209.56C286.242 209.56 283.386 206.632 283.386 202.6C283.386 198.568 286.242 195.64 289.986 195.64C293.754 195.64 296.61 198.568 296.61 202.6C296.61 206.632 293.754 209.56 289.986 209.56ZM315.469 198.28C312.133 198.28 309.613 200.512 309.229 203.824H306.325V198.376H304.621V211H306.325V205.384H309.205C309.517 208.768 312.085 211.12 315.469 211.12C319.069 211.12 321.733 208.432 321.733 204.688C321.733 200.92 319.069 198.28 315.469 198.28ZM315.469 209.632C312.853 209.632 310.885 207.64 310.885 204.688C310.885 201.736 312.853 199.768 315.469 199.768C318.061 199.768 320.053 201.736 320.053 204.688C320.053 207.64 318.061 209.632 315.469 209.632ZM342.252 194.2C338.244 194.2 335.628 196.336 335.628 200.152C335.628 202.888 336.996 204.808 339.444 205.552L335.628 211H337.524L341.052 205.864C341.364 205.888 341.676 205.912 342.012 205.912H347.028V211H348.78V194.2H342.252ZM337.404 200.104C337.404 197.248 339.204 195.736 342.324 195.736H347.028V204.4H342.156C339.036 204.4 337.404 202.84 337.404 200.104ZM360.838 198.376C357.574 198.376 355.462 199.816 355.462 202.696C355.462 204.736 356.566 206.056 358.51 206.584L355.366 211H357.214L360.142 206.824H360.622H364.582V211H366.142V198.376H360.838ZM357.19 202.744C357.19 200.728 358.534 199.888 360.886 199.888H364.582V205.552H360.766C358.414 205.552 357.19 204.664 357.19 202.744Z" fill="#9F9F9F"/>
<path d="M29.3296 311.608C30.2176 311.332 30.7456 310.66 30.7456 309.76C30.7456 308.32 29.3296 307.48 27.6496 307.48C26.7616 307.48 25.8136 307.708 24.9496 308.224L25.2496 308.956C26.0056 308.476 26.8576 308.26 27.6256 308.26C28.8496 308.26 29.8576 308.836 29.8576 309.856C29.8576 310.756 29.1616 311.284 27.9736 311.284H26.2216V312.004H28.0216C29.4016 312.004 30.2176 312.544 30.2176 313.528C30.2176 314.668 29.0416 315.316 27.6976 315.316C26.7736 315.316 25.7656 315.004 25.0096 314.356L24.6856 314.992C25.5736 315.736 26.7256 316.072 27.7936 316.072C29.5456 316.072 31.1056 315.172 31.1056 313.648C31.1056 312.628 30.4336 311.884 29.3296 311.608ZM35.2785 309.64C34.2825 309.64 33.3465 309.952 32.7105 310.492L33.0945 311.128C33.6105 310.672 34.3785 310.384 35.1945 310.384C36.3705 310.384 36.9825 310.972 36.9825 312.052V312.436H34.9785C33.1665 312.436 32.5425 313.252 32.5425 314.224C32.5425 315.316 33.4185 316.06 34.8465 316.06C35.8905 316.06 36.6345 315.664 37.0185 315.016V316H37.8345V312.088C37.8345 310.456 36.9105 309.64 35.2785 309.64ZM34.9785 315.388C33.9705 315.388 33.3825 314.932 33.3825 314.2C33.3825 313.552 33.7785 313.072 35.0025 313.072H36.9825V314.104C36.6465 314.932 35.9385 315.388 34.9785 315.388ZM44.5666 309.688H40.1026V316H40.9546V310.444H44.5666V309.688ZM48.109 316.06C49.957 316.06 51.313 314.716 51.313 312.844C51.313 310.972 49.957 309.64 48.109 309.64C46.261 309.64 44.893 310.972 44.893 312.844C44.893 314.716 46.261 316.06 48.109 316.06ZM48.109 315.304C46.765 315.304 45.757 314.32 45.757 312.844C45.757 311.368 46.765 310.384 48.109 310.384C49.453 310.384 50.449 311.368 50.449 312.844C50.449 314.32 49.453 315.304 48.109 315.304ZM53.6387 309.688L53.5307 311.944C53.4467 313.612 53.3507 315.304 52.3067 315.304C52.2227 315.304 52.1147 315.28 52.0067 315.256L51.9467 315.988C52.1747 316.048 52.3667 316.084 52.5587 316.084C53.9147 316.084 54.1907 314.212 54.2987 312.004L54.3827 310.444H57.4067V316H58.2587V309.688H53.6387ZM63.2848 316.06C65.1328 316.06 66.4888 314.716 66.4888 312.844C66.4888 310.972 65.1328 309.64 63.2848 309.64C61.4368 309.64 60.0688 310.972 60.0688 312.844C60.0688 314.716 61.4368 316.06 63.2848 316.06ZM63.2848 315.304C61.9408 315.304 60.9328 314.32 60.9328 312.844C60.9328 311.368 61.9408 310.384 63.2848 310.384C64.6288 310.384 65.6248 311.368 65.6248 312.844C65.6248 314.32 64.6288 315.304 63.2848 315.304ZM72.3297 312.736C72.9897 312.496 73.3977 312.016 73.3977 311.308C73.3977 310.264 72.5217 309.688 71.0937 309.688H68.3097V316H71.1777C72.8217 316 73.6137 315.376 73.6137 314.284C73.6137 313.456 73.2057 312.94 72.3297 312.736ZM69.1377 310.36H71.0337C72.0057 310.36 72.5457 310.708 72.5457 311.416C72.5457 312.124 72.0057 312.496 71.0337 312.496H69.1377V310.36ZM71.1417 315.328H69.1377V313.132H71.2257C72.2937 313.132 72.7737 313.48 72.7737 314.236C72.7737 314.992 72.2097 315.328 71.1417 315.328ZM78.2144 316.06C80.0624 316.06 81.4184 314.716 81.4184 312.844C81.4184 310.972 80.0624 309.64 78.2144 309.64C76.3664 309.64 74.9984 310.972 74.9984 312.844C74.9984 314.716 76.3664 316.06 78.2144 316.06ZM78.2144 315.304C76.8704 315.304 75.8624 314.32 75.8624 312.844C75.8624 311.368 76.8704 310.384 78.2144 310.384C79.5584 310.384 80.5544 311.368 80.5544 312.844C80.5544 314.32 79.5584 315.304 78.2144 315.304ZM87.8593 316H88.8673L86.2033 312.748L88.6873 309.688H87.7633L85.5433 312.46H84.0913V309.688H83.2393V316H84.0913V313.192H85.5313L87.8593 316Z" fill="#9F9F9F"/>
<path d="M1.71678 351.6V360H2.59278V352.368H7.90878V360H8.78478V351.6H1.71678ZM14.0191 360.06C15.8671 360.06 17.2231 358.716 17.2231 356.844C17.2231 354.972 15.8671 353.64 14.0191 353.64C12.1711 353.64 10.8031 354.972 10.8031 356.844C10.8031 358.716 12.1711 360.06 14.0191 360.06ZM14.0191 359.304C12.6751 359.304 11.6671 358.32 11.6671 356.844C11.6671 355.368 12.6751 354.384 14.0191 354.384C15.3631 354.384 16.3591 355.368 16.3591 356.844C16.3591 358.32 15.3631 359.304 14.0191 359.304ZM24.1809 359.256V353.688H19.5249L19.4409 355.8C19.3569 357.504 19.2009 359.196 18.2649 359.256H17.9049V361.524H18.7089V360H24.3609V361.524H25.1649V359.256H24.1809ZM20.2209 355.848L20.2929 354.444H23.3289V359.256H19.3929C20.0289 358.776 20.1609 357.288 20.2209 355.848ZM29.7684 356.712C30.5004 356.472 30.9924 355.968 30.9924 355.308C30.9924 354.276 29.8884 353.616 28.4484 353.616C27.6804 353.616 26.8884 353.796 26.1084 354.204L26.3484 354.864C27.0204 354.516 27.7164 354.348 28.3644 354.348C29.3724 354.348 30.1164 354.732 30.1164 355.428C30.1164 356.052 29.4684 356.424 28.5444 356.424H27.5124V357.048H28.5924C29.6484 357.048 30.2964 357.444 30.2964 358.116C30.2964 358.884 29.4444 359.34 28.3044 359.34C27.5364 359.34 26.7204 359.1 26.1324 358.656L25.8444 359.292C26.5164 359.808 27.4404 360.072 28.3404 360.072C29.9124 360.072 31.1724 359.328 31.1724 358.188C31.1724 357.444 30.6564 356.916 29.7684 356.712ZM35.2785 353.64C34.2825 353.64 33.3465 353.952 32.7105 354.492L33.0945 355.128C33.6105 354.672 34.3785 354.384 35.1945 354.384C36.3705 354.384 36.9825 354.972 36.9825 356.052V356.436H34.9785C33.1665 356.436 32.5425 357.252 32.5425 358.224C32.5425 359.316 33.4185 360.06 34.8465 360.06C35.8905 360.06 36.6345 359.664 37.0185 359.016V360H37.8345V356.088C37.8345 354.456 36.9105 353.64 35.2785 353.64ZM34.9785 359.388C33.9705 359.388 33.3825 358.932 33.3825 358.2C33.3825 357.552 33.7785 357.072 35.0025 357.072H36.9825V358.104C36.6465 358.932 35.9385 359.388 34.9785 359.388ZM44.5666 353.688H40.1026V360H40.9546V354.444H44.5666V353.688ZM48.109 360.06C49.957 360.06 51.313 358.716 51.313 356.844C51.313 354.972 49.957 353.64 48.109 353.64C46.261 353.64 44.893 354.972 44.893 356.844C44.893 358.716 46.261 360.06 48.109 360.06ZM48.109 359.304C46.765 359.304 45.757 358.32 45.757 356.844C45.757 355.368 46.765 354.384 48.109 354.384C49.453 354.384 50.449 355.368 50.449 356.844C50.449 358.32 49.453 359.304 48.109 359.304ZM53.6387 353.688L53.5307 355.944C53.4467 357.612 53.3507 359.304 52.3067 359.304C52.2227 359.304 52.1147 359.28 52.0067 359.256L51.9467 359.988C52.1747 360.048 52.3667 360.084 52.5587 360.084C53.9147 360.084 54.1907 358.212 54.2987 356.004L54.3827 354.444H57.4067V360H58.2587V353.688H53.6387ZM63.2848 360.06C65.1328 360.06 66.4888 358.716 66.4888 356.844C66.4888 354.972 65.1328 353.64 63.2848 353.64C61.4368 353.64 60.0688 354.972 60.0688 356.844C60.0688 358.716 61.4368 360.06 63.2848 360.06ZM63.2848 359.304C61.9408 359.304 60.9328 358.32 60.9328 356.844C60.9328 355.368 61.9408 354.384 63.2848 354.384C64.6288 354.384 65.6248 355.368 65.6248 356.844C65.6248 358.32 64.6288 359.304 63.2848 359.304ZM72.3297 356.736C72.9897 356.496 73.3977 356.016 73.3977 355.308C73.3977 354.264 72.5217 353.688 71.0937 353.688H68.3097V360H71.1777C72.8217 360 73.6137 359.376 73.6137 358.284C73.6137 357.456 73.2057 356.94 72.3297 356.736ZM69.1377 354.36H71.0337C72.0057 354.36 72.5457 354.708 72.5457 355.416C72.5457 356.124 72.0057 356.496 71.0337 356.496H69.1377V354.36ZM71.1417 359.328H69.1377V357.132H71.2257C72.2937 357.132 72.7737 357.48 72.7737 358.236C72.7737 358.992 72.2097 359.328 71.1417 359.328ZM78.2144 360.06C80.0624 360.06 81.4184 358.716 81.4184 356.844C81.4184 354.972 80.0624 353.64 78.2144 353.64C76.3664 353.64 74.9984 354.972 74.9984 356.844C74.9984 358.716 76.3664 360.06 78.2144 360.06ZM78.2144 359.304C76.8704 359.304 75.8624 358.32 75.8624 356.844C75.8624 355.368 76.8704 354.384 78.2144 354.384C79.5584 354.384 80.5544 355.368 80.5544 356.844C80.5544 358.32 79.5584 359.304 78.2144 359.304ZM87.8593 360H88.8673L86.2033 356.748L88.6873 353.688H87.7633L85.5433 356.46H84.0913V353.688H83.2393V360H84.0913V357.192H85.5313L87.8593 360Z" fill="#9F9F9F"/>
<path d="M63.0292 394.6H56.2492V395.368H59.2012V403H60.0772V395.368H63.0292V394.6ZM69.2596 399.844C69.2596 397.948 67.9756 396.64 66.1996 396.64C64.4236 396.64 63.1156 397.972 63.1156 399.844C63.1156 401.716 64.4596 403.06 66.4276 403.06C67.4236 403.06 68.2996 402.7 68.8636 402.028L68.3836 401.476C67.9036 402.028 67.2196 402.304 66.4516 402.304C65.0716 402.304 64.0636 401.428 63.9676 400.108H69.2476C69.2476 400.012 69.2596 399.916 69.2596 399.844ZM66.1996 397.372C67.4356 397.372 68.3356 398.236 68.4436 399.472H63.9676C64.0756 398.236 64.9756 397.372 66.1996 397.372ZM75.7656 403H76.7736L74.1096 399.748L76.5936 396.688H75.6696L73.4496 399.46H71.9976V396.688H71.1456V403H71.9976V400.192H73.4376L75.7656 403ZM80.5356 403.06C81.6036 403.06 82.5036 402.628 83.0076 401.812L82.3716 401.38C81.9396 402.016 81.2676 402.304 80.5356 402.304C79.1556 402.304 78.1476 401.332 78.1476 399.844C78.1476 398.368 79.1556 397.384 80.5356 397.384C81.2676 397.384 81.9396 397.684 82.3716 398.32L83.0076 397.888C82.5036 397.06 81.6036 396.64 80.5356 396.64C78.6516 396.64 77.2836 397.96 77.2836 399.844C77.2836 401.728 78.6516 403.06 80.5356 403.06ZM88.9801 396.688H83.3521V397.444H85.7401V403H86.5921V397.444H88.9801V396.688Z" fill="#9F9F9F"/>
</svg>
