<svg width="121" height="58" viewBox="0 0 121 58" fill="none" xmlns="http://www.w3.org/2000/svg">
<path fill-rule="evenodd" clip-rule="evenodd" d="M95 58C109.359 58 121 46.1355 121 31.5C121 16.8645 109.359 5 95 5V14.9375C103.975 14.9375 111.25 22.3528 111.25 31.5C111.25 40.6472 103.975 48.0625 95 48.0625V58Z" fill="black"/>
<path fill-rule="evenodd" clip-rule="evenodd" d="M95 5C80.6406 5 69 16.8645 69 31.5C69 46.1355 80.6406 58 95 58L95 48.0625C86.0254 48.0625 78.75 40.6472 78.75 31.5C78.75 22.3528 86.0254 14.9375 95 14.9375L95 5Z" fill="black"/>
<path fill-rule="evenodd" clip-rule="evenodd" d="M13 58C27.3594 58 39 46.0941 39 31.5576C39 17.0211 27.3594 5 13 5L13 15C21.9746 15 29.25 22.4723 29.25 31.5576C29.25 40.6429 21.9746 48.008 13 48.008L13 58Z" fill="black"/>
<path d="M0 15H13.5V5H0V15Z" fill="black"/>
<path d="M49 5L49 58L59 58L59 5L49 5Z" fill="black"/>
<path d="M100 27V5.46808C96.7356 4.50959 93.2644 4.50959 90 5.46808V27H100Z" fill="#33FF00"/>
<path fill-rule="evenodd" clip-rule="evenodd" d="M104 2.47369V31H86V2.47369L88.8731 1.6301C92.8733 0.455585 97.1267 0.455585 101.127 1.6301L104 2.47369ZM100 27H90V5.46808C93.2644 4.50959 96.7356 4.50959 100 5.46808V27Z" fill="white"/>
<path d="M0 58H13.5V48H0V58Z" fill="black"/>
</svg>
