<svg width="340" height="355" viewBox="0 0 340 355" fill="none" xmlns="http://www.w3.org/2000/svg">
<g clip-path="url(#clip0)">
<rect width="340" height="354.167" fill="black"/>
<path fill-rule="evenodd" clip-rule="evenodd" d="M58 100C67.3888 100 75 92.6127 75 83.5C75 74.3873 67.3888 67 58 67L58 73.1875C63.868 73.1875 68.625 77.8046 68.625 83.5C68.625 89.1954 63.868 93.8125 58 93.8125L58 100Z" fill="#33FF00"/>
<path fill-rule="evenodd" clip-rule="evenodd" d="M58 167C67.3888 167 75 159.389 75 150C75 140.611 67.3888 133 58 133L58 139.375C63.868 139.375 68.625 144.132 68.625 150C68.625 155.868 63.868 160.625 58 160.625L58 167Z" fill="#33FF00"/>
<path fill-rule="evenodd" clip-rule="evenodd" d="M154 367C162.837 367 170 359.389 170 350C170 340.611 162.837 333 154 333V339.375C159.523 339.375 164 344.132 164 350C164 355.868 159.523 360.625 154 360.625V367Z" fill="#33FF00"/>
<path fill-rule="evenodd" clip-rule="evenodd" d="M-2 367C7.38884 367 15 359.389 15 350C15 340.611 7.38884 333 -2 333L-2 339.375C3.86803 339.375 8.625 344.132 8.625 350C8.625 355.868 3.86803 360.625 -2 360.625L-2 367Z" fill="#33FF00"/>
<path fill-rule="evenodd" clip-rule="evenodd" d="M106 167C114.837 167 122 159.389 122 150C122 140.611 114.837 133 106 133V139.375C111.523 139.375 116 144.132 116 150C116 155.868 111.523 160.625 106 160.625V167Z" fill="#33FF00"/>
<path fill-rule="evenodd" clip-rule="evenodd" d="M202 367C210.837 367 218 359.389 218 350C218 340.611 210.837 333 202 333V339.375C207.523 339.375 212 344.132 212 350C212 355.868 207.523 360.625 202 360.625V367Z" fill="#33FF00"/>
<path fill-rule="evenodd" clip-rule="evenodd" d="M49 367C58.3888 367 66 359.389 66 350C66 340.611 58.3888 333 49 333L49 339.375C54.868 339.375 59.625 344.132 59.625 350C59.625 355.868 54.868 360.625 49 360.625L49 367Z" fill="#33FF00"/>
<path fill-rule="evenodd" clip-rule="evenodd" d="M8 100C16.8366 100 24 92.6127 24 83.5C24 74.3873 16.8366 67 8 67L8 73.1875C13.5228 73.1875 18 77.8046 18 83.5C18 89.1954 13.5228 93.8125 8 93.8125V100Z" fill="#33FF00"/>
<path fill-rule="evenodd" clip-rule="evenodd" d="M158 167C166.837 167 174 159.389 174 150C174 140.611 166.837 133 158 133V139.375C163.523 139.375 168 144.132 168 150C168 155.868 163.523 160.625 158 160.625V167Z" fill="#33FF00"/>
<path fill-rule="evenodd" clip-rule="evenodd" d="M253 367C262.389 367 270 359.389 270 350C270 340.611 262.389 333 253 333V339.375C258.868 339.375 263.625 344.132 263.625 350C263.625 355.868 258.868 360.625 253 360.625V367Z" fill="#33FF00"/>
<path fill-rule="evenodd" clip-rule="evenodd" d="M101 367C109.837 367 117 359.389 117 350C117 340.611 109.837 333 101 333V339.375C106.523 339.375 111 344.132 111 350C111 355.868 106.523 360.625 101 360.625V367Z" fill="#33FF00"/>
<path fill-rule="evenodd" clip-rule="evenodd" d="M46 133C36.6112 133 29 125.613 29 116.5C29 107.387 36.6112 100 46 100L46 106.188C40.132 106.188 35.375 110.805 35.375 116.5C35.375 122.195 40.132 126.812 46 126.812L46 133Z" fill="#33FF00"/>
<path fill-rule="evenodd" clip-rule="evenodd" d="M46 200C36.6112 200 29 192.613 29 183.5C29 174.387 36.6112 167 46 167L46 173.188C40.132 173.188 35.375 177.805 35.375 183.5C35.375 189.195 40.132 193.812 46 193.812L46 200Z" fill="#33FF00"/>
<path fill-rule="evenodd" clip-rule="evenodd" d="M93 200C84.1634 200 77 192.613 77 183.5C77 174.387 84.1634 167 93 167V173.188C87.4772 173.188 83 177.805 83 183.5C83 189.195 87.4772 193.812 93 193.812V200Z" fill="#33FF00"/>
<path fill-rule="evenodd" clip-rule="evenodd" d="M145 200C136.163 200 129 192.613 129 183.5C129 174.387 136.163 167 145 167V173.188C139.477 173.188 135 177.805 135 183.5C135 189.195 139.477 193.812 145 193.812V200Z" fill="#33FF00"/>
<path fill-rule="evenodd" clip-rule="evenodd" d="M6 267C-11.6731 267 -26 252.002 -26 233.5C-26 214.998 -11.6731 200 6 200L6 212.562C-5.0457 212.562 -14 221.937 -14 233.5C-14 245.063 -5.0457 254.438 6 254.438L6 267Z" fill="white"/>
<path fill-rule="evenodd" clip-rule="evenodd" d="M110 133C91.7746 133 77 118.225 77 100C77 81.7746 91.7746 67 110 67V79.375C98.6091 79.375 89.375 88.6091 89.375 100C89.375 111.391 98.6091 120.625 110 120.625L110 133Z" fill="white"/>
<path fill-rule="evenodd" clip-rule="evenodd" d="M110 333C91.7746 333 77 318.225 77 300C77 281.775 91.7746 267 110 267V279.375C98.6091 279.375 89.375 288.609 89.375 300C89.375 311.391 98.6091 320.625 110 320.625L110 333Z" fill="white"/>
<path fill-rule="evenodd" clip-rule="evenodd" d="M63 67C45.3269 67 31 52.0015 31 33.5C31 14.9985 45.3269 0 63 0V12.5625C51.9543 12.5625 43 21.9365 43 33.5C43 45.0635 51.9543 54.4375 63 54.4375V67Z" fill="white"/>
<path fill-rule="evenodd" clip-rule="evenodd" d="M110 267C91.7746 267 77 252.002 77 233.5C77 214.998 91.7746 200 110 200V212.562C98.6091 212.562 89.375 221.937 89.375 233.5C89.375 245.063 98.6091 254.438 110 254.438L110 267Z" fill="white"/>
<path fill-rule="evenodd" clip-rule="evenodd" d="M212 133C193.775 133 179 118.225 179 100C179 81.7746 193.775 67 212 67V79.375C200.609 79.375 191.375 88.6091 191.375 100C191.375 111.391 200.609 120.625 212 120.625V133Z" fill="white"/>
<path fill-rule="evenodd" clip-rule="evenodd" d="M14 333C-3.67311 333 -18 318.225 -18 300C-18 281.775 -3.67311 267 14 267L14 279.375C2.9543 279.375 -6 288.609 -6 300C-6 311.391 2.9543 320.625 14 320.625L14 333Z" fill="white"/>
<path fill-rule="evenodd" clip-rule="evenodd" d="M58 67C49.1634 67 42 74.3873 42 83.5C42 92.6127 49.1634 100 58 100L58 93.8125C52.4772 93.8125 48 89.1954 48 83.5C48 77.8046 52.4772 73.1875 58 73.1875L58 67Z" fill="#33FF00"/>
<path fill-rule="evenodd" clip-rule="evenodd" d="M58 133C49.1634 133 42 140.611 42 150C42 159.389 49.1634 167 58 167L58 160.625C52.4772 160.625 48 155.868 48 150C48 144.132 52.4772 139.375 58 139.375L58 133Z" fill="#33FF00"/>
<path fill-rule="evenodd" clip-rule="evenodd" d="M154 333C145.163 333 138 340.611 138 350C138 359.389 145.163 367 154 367L154 360.625C148.477 360.625 144 355.868 144 350C144 344.132 148.477 339.375 154 339.375L154 333Z" fill="#33FF00"/>
<path fill-rule="evenodd" clip-rule="evenodd" d="M106 133C97.1634 133 90 140.611 90 150C90 159.389 97.1634 167 106 167L106 160.625C100.477 160.625 96 155.868 96 150C96 144.132 100.477 139.375 106 139.375L106 133Z" fill="#33FF00"/>
<path fill-rule="evenodd" clip-rule="evenodd" d="M202 333C192.611 333 185 340.611 185 350C185 359.389 192.611 367 202 367L202 360.625C196.132 360.625 191.375 355.868 191.375 350C191.375 344.132 196.132 339.375 202 339.375L202 333Z" fill="#33FF00"/>
<path fill-rule="evenodd" clip-rule="evenodd" d="M49 333C40.1634 333 33 340.611 33 350C33 359.389 40.1634 367 49 367L49 360.625C43.4772 360.625 39 355.868 39 350C39 344.132 43.4772 339.375 49 339.375L49 333Z" fill="#33FF00"/>
<path fill-rule="evenodd" clip-rule="evenodd" d="M8 67C-0.836555 67 -8 74.3873 -8 83.5C-8 92.6127 -0.836558 100 8 100L8 93.8125C2.47715 93.8125 -2 89.1954 -2 83.5C-2 77.8046 2.47715 73.1875 8 73.1875L8 67Z" fill="#33FF00"/>
<path fill-rule="evenodd" clip-rule="evenodd" d="M158 133C148.611 133 141 140.611 141 150C141 159.389 148.611 167 158 167L158 160.625C152.132 160.625 147.375 155.868 147.375 150C147.375 144.132 152.132 139.375 158 139.375L158 133Z" fill="#33FF00"/>
<path fill-rule="evenodd" clip-rule="evenodd" d="M253 333C244.163 333 237 340.611 237 350C237 359.389 244.163 367 253 367L253 360.625C247.477 360.625 243 355.868 243 350C243 344.132 247.477 339.375 253 339.375L253 333Z" fill="#33FF00"/>
<path fill-rule="evenodd" clip-rule="evenodd" d="M101 333C92.1634 333 85 340.611 85 350C85 359.389 92.1634 367 101 367L101 360.625C95.4772 360.625 91 355.868 91 350C91 344.132 95.4772 339.375 101 339.375L101 333Z" fill="#33FF00"/>
<path fill-rule="evenodd" clip-rule="evenodd" d="M46 100C54.8366 100 62 107.387 62 116.5C62 125.613 54.8366 133 46 133L46 126.812C51.5228 126.812 56 122.195 56 116.5C56 110.805 51.5228 106.187 46 106.188L46 100Z" fill="#33FF00"/>
<path fill-rule="evenodd" clip-rule="evenodd" d="M46 167C54.8366 167 62 174.387 62 183.5C62 192.613 54.8366 200 46 200L46 193.812C51.5228 193.812 56 189.195 56 183.5C56 177.805 51.5228 173.187 46 173.188L46 167Z" fill="#33FF00"/>
<path fill-rule="evenodd" clip-rule="evenodd" d="M93 167C102.389 167 110 174.387 110 183.5C110 192.613 102.389 200 93 200L93 193.812C98.868 193.812 103.625 189.195 103.625 183.5C103.625 177.805 98.868 173.187 93 173.188L93 167Z" fill="#33FF00"/>
<path fill-rule="evenodd" clip-rule="evenodd" d="M-5 100C4.38884 100 12 107.387 12 116.5C12 125.613 4.38884 133 -5 133L-5 126.812C0.868027 126.812 5.625 122.195 5.625 116.5C5.625 110.805 0.868025 106.187 -5 106.188L-5 100Z" fill="#33FF00"/>
<path fill-rule="evenodd" clip-rule="evenodd" d="M145 167C153.837 167 161 174.387 161 183.5C161 192.613 153.837 200 145 200L145 193.812C150.523 193.812 155 189.195 155 183.5C155 177.805 150.523 173.187 145 173.188L145 167Z" fill="#33FF00"/>
<path fill-rule="evenodd" clip-rule="evenodd" d="M-5 167C4.38884 167 12 174.387 12 183.5C12 192.613 4.38884 200 -5 200L-5 193.812C0.868027 193.812 5.625 189.195 5.625 183.5C5.625 177.805 0.868025 173.187 -5 173.188L-5 167Z" fill="#33FF00"/>
<path fill-rule="evenodd" clip-rule="evenodd" d="M5.99999 200C24.2254 200 39 214.998 39 233.5C39 252.002 24.2254 267 6 267L6 254.438C17.3909 254.437 26.625 245.063 26.625 233.5C26.625 221.937 17.3909 212.562 6 212.562L5.99999 200Z" fill="white"/>
<path fill-rule="evenodd" clip-rule="evenodd" d="M110 67C127.673 67 142 81.7746 142 100C142 118.225 127.673 133 110 133L110 120.625C121.046 120.625 130 111.391 130 100C130 88.6091 121.046 79.375 110 79.375L110 67Z" fill="white"/>
<path fill-rule="evenodd" clip-rule="evenodd" d="M110 267C127.673 267 142 281.775 142 300C142 318.225 127.673 333 110 333L110 320.625C121.046 320.625 130 311.391 130 300C130 288.609 121.046 279.375 110 279.375L110 267Z" fill="white"/>
<path fill-rule="evenodd" clip-rule="evenodd" d="M63 0C81.2254 -1.59332e-06 96 14.9985 96 33.5C96 52.0015 81.2254 67 63 67L63 54.4375C74.3909 54.4375 83.625 45.0635 83.625 33.5C83.625 21.9365 74.3909 12.5625 63 12.5625L63 0Z" fill="white"/>
<path fill-rule="evenodd" clip-rule="evenodd" d="M110 200C127.673 200 142 214.998 142 233.5C142 252.002 127.673 267 110 267L110 254.438C121.046 254.437 130 245.063 130 233.5C130 221.937 121.046 212.562 110 212.562L110 200Z" fill="white"/>
<path fill-rule="evenodd" clip-rule="evenodd" d="M212 67C229.673 67 244 81.7746 244 100C244 118.225 229.673 133 212 133L212 120.625C223.046 120.625 232 111.391 232 100C232 88.6091 223.046 79.375 212 79.375L212 67Z" fill="white"/>
<path fill-rule="evenodd" clip-rule="evenodd" d="M14 267C32.2254 267 47 281.775 47 300C47 318.225 32.2254 333 14 333L14 320.625C25.3909 320.625 34.625 311.391 34.625 300C34.625 288.609 25.3909 279.375 14 279.375L14 267Z" fill="white"/>
<path d="M29 67L29 100L36 100L36 67L29 67Z" fill="#33FF00"/>
<path d="M29 133L29 167L36 167L36 133L29 133Z" fill="#33FF00"/>
<path d="M125 333L125 367L131 367L131 333L125 333Z" fill="#33FF00"/>
<path d="M77 133L77 167L83 167L83 133L77 133Z" fill="#33FF00"/>
<path d="M173 333L173 367L179 367L179 333L173 333Z" fill="#33FF00"/>
<path d="M20 333L20 367L27 367L27 333L20 333Z" fill="#33FF00"/>
<path d="M129 133L129 167L135 167L135 133L129 133Z" fill="#33FF00"/>
<path d="M224 333L224 367L231 367L231 333L224 333Z" fill="#33FF00"/>
<path d="M72 333L72 367L78 367L78 333L72 333Z" fill="#33FF00"/>
<path d="M75 100L75 133L68 133L68 100L75 100Z" fill="#33FF00"/>
<path d="M75 167L75 200L68 200L68 167L75 167Z" fill="#33FF00"/>
<path d="M122 167L122 200L116 200L116 167L122 167Z" fill="#33FF00"/>
<path d="M24 100L24 133L18 133L18 100L24 100Z" fill="#33FF00"/>
<path d="M174 167L174 200L168 200L168 167L174 167Z" fill="#33FF00"/>
<path d="M24 167L24 200L18 200L18 167L24 167Z" fill="#33FF00"/>
<path d="M18 -5.68248e-07L18 67L5 67L5 0L18 -5.68248e-07Z" fill="white"/>
<path d="M64 200L64 267L52 267L52 200L64 200Z" fill="white"/>
<path d="M168 67L168 133L155 133L155 67L168 67Z" fill="white"/>
<path d="M168 267L168 333L155 333L155 267L168 267Z" fill="white"/>
<path d="M121 -5.24537e-07L121 67L109 67L109 0L121 -5.24537e-07Z" fill="white"/>
<path d="M168 200L168 267L155 267L155 200L168 200Z" fill="white"/>
<path d="M270 67L270 133L257 133L257 67L270 67Z" fill="white"/>
<path d="M72 267L72 333L60 333L60 267L72 267Z" fill="white"/>
<path fill-rule="evenodd" clip-rule="evenodd" d="M216 233C224.837 233 232 225.613 232 216.5C232 207.387 224.837 200 216 200V206.188C221.523 206.188 226 210.805 226 216.5C226 222.195 221.523 226.812 216 226.812V233Z" fill="#33FF00"/>
<path fill-rule="evenodd" clip-rule="evenodd" d="M305 367C314.389 367 322 359.389 322 350C322 340.611 314.389 333 305 333V339.375C310.868 339.375 315.625 344.132 315.625 350C315.625 355.868 310.868 360.625 305 360.625V367Z" fill="#33FF00"/>
<path fill-rule="evenodd" clip-rule="evenodd" d="M315 100C323.837 100 331 92.6127 331 83.5C331 74.3873 323.837 67 315 67V73.1875C320.523 73.1875 325 77.8046 325 83.5C325 89.1954 320.523 93.8125 315 93.8125V100Z" fill="#33FF00"/>
<path fill-rule="evenodd" clip-rule="evenodd" d="M203 267C194.163 267 187 259.389 187 250C187 240.611 194.163 233 203 233V239.375C197.477 239.375 193 244.132 193 250C193 255.868 197.477 260.625 203 260.625V267Z" fill="#33FF00"/>
<path fill-rule="evenodd" clip-rule="evenodd" d="M353 133C343.611 133 336 125.613 336 116.5C336 107.387 343.611 100 353 100V106.188C347.132 106.188 342.375 110.805 342.375 116.5C342.375 122.195 347.132 126.812 353 126.812V133Z" fill="#33FF00"/>
<path fill-rule="evenodd" clip-rule="evenodd" d="M353 200C343.611 200 336 192.613 336 183.5C336 174.387 343.611 167 353 167V173.188C347.132 173.188 342.375 177.805 342.375 183.5C342.375 189.195 347.132 193.812 353 193.812V200Z" fill="#33FF00"/>
<path fill-rule="evenodd" clip-rule="evenodd" d="M203 200C194.163 200 187 192.613 187 183.5C187 174.387 194.163 167 203 167V173.188C197.477 173.188 193 177.805 193 183.5C193 189.195 197.477 193.812 203 193.812V200Z" fill="#33FF00"/>
<path fill-rule="evenodd" clip-rule="evenodd" d="M251 200C241.611 200 234 192.613 234 183.5C234 174.387 241.611 167 251 167V173.188C245.132 173.188 240.375 177.805 240.375 183.5C240.375 189.195 245.132 193.812 251 193.812V200Z" fill="#33FF00"/>
<path fill-rule="evenodd" clip-rule="evenodd" d="M302 133C293.163 133 286 125.613 286 116.5C286 107.387 293.163 100 302 100V106.188C296.477 106.188 292 110.805 292 116.5C292 122.195 296.477 126.812 302 126.812V133Z" fill="#33FF00"/>
<path fill-rule="evenodd" clip-rule="evenodd" d="M302 200C293.163 200 286 192.613 286 183.5C286 174.387 293.163 167 302 167V173.188C296.477 173.188 292 177.805 292 183.5C292 189.195 296.477 193.812 302 193.812V200Z" fill="#33FF00"/>
<path fill-rule="evenodd" clip-rule="evenodd" d="M267 67C248.775 67 234 52.0015 234 33.5C234 14.9985 248.775 0 267 0V12.5625C255.609 12.5625 246.375 21.9365 246.375 33.5C246.375 45.0635 255.609 54.4375 267 54.4375V67Z" fill="white"/>
<path fill-rule="evenodd" clip-rule="evenodd" d="M313 267C295.327 267 281 252.002 281 233.5C281 214.998 295.327 200 313 200V212.562C301.954 212.562 293 221.937 293 233.5C293 245.063 301.954 254.438 313 254.438V267Z" fill="white"/>
<path fill-rule="evenodd" clip-rule="evenodd" d="M219 333C201.327 333 187 318.225 187 300C187 281.775 201.327 267 219 267V279.375C207.954 279.375 199 288.609 199 300C199 311.391 207.954 320.625 219 320.625V333Z" fill="white"/>
<path fill-rule="evenodd" clip-rule="evenodd" d="M370 67C352.327 67 338 52.0015 338 33.5C338 14.9985 352.327 0 370 0V12.5625C358.954 12.5625 350 21.9365 350 33.5C350 45.0635 358.954 54.4375 370 54.4375V67Z" fill="white"/>
<path fill-rule="evenodd" clip-rule="evenodd" d="M321 333C303.327 333 289 318.225 289 300C289 281.775 303.327 267 321 267V279.375C309.954 279.375 301 288.609 301 300C301 311.391 309.954 320.625 321 320.625V333Z" fill="white"/>
<path fill-rule="evenodd" clip-rule="evenodd" d="M216 200C206.611 200 199 207.387 199 216.5C199 225.613 206.611 233 216 233L216 226.812C210.132 226.812 205.375 222.195 205.375 216.5C205.375 210.805 210.132 206.187 216 206.188L216 200Z" fill="#33FF00"/>
<path fill-rule="evenodd" clip-rule="evenodd" d="M305 333C296.163 333 289 340.611 289 350C289 359.389 296.163 367 305 367L305 360.625C299.477 360.625 295 355.868 295 350C295 344.132 299.477 339.375 305 339.375L305 333Z" fill="#33FF00"/>
<path fill-rule="evenodd" clip-rule="evenodd" d="M315 67C306.163 67 299 74.3873 299 83.5C299 92.6127 306.163 100 315 100L315 93.8125C309.477 93.8125 305 89.1954 305 83.5C305 77.8046 309.477 73.1875 315 73.1875L315 67Z" fill="#33FF00"/>
<path fill-rule="evenodd" clip-rule="evenodd" d="M203 233C211.837 233 219 240.611 219 250C219 259.389 211.837 267 203 267L203 260.625C208.523 260.625 213 255.868 213 250C213 244.132 208.523 239.375 203 239.375L203 233Z" fill="#33FF00"/>
<path fill-rule="evenodd" clip-rule="evenodd" d="M203 167C211.837 167 219 174.387 219 183.5C219 192.613 211.837 200 203 200L203 193.812C208.523 193.812 213 189.195 213 183.5C213 177.805 208.523 173.187 203 173.188L203 167Z" fill="#33FF00"/>
<path fill-rule="evenodd" clip-rule="evenodd" d="M251 167C259.837 167 267 174.387 267 183.5C267 192.613 259.837 200 251 200L251 193.812C256.523 193.812 261 189.195 261 183.5C261 177.805 256.523 173.187 251 173.188L251 167Z" fill="#33FF00"/>
<path fill-rule="evenodd" clip-rule="evenodd" d="M302 100C311.389 100 319 107.387 319 116.5C319 125.613 311.389 133 302 133L302 126.812C307.868 126.812 312.625 122.195 312.625 116.5C312.625 110.805 307.868 106.187 302 106.188L302 100Z" fill="#33FF00"/>
<path fill-rule="evenodd" clip-rule="evenodd" d="M302 167C311.389 167 319 174.387 319 183.5C319 192.613 311.389 200 302 200L302 193.812C307.868 193.812 312.625 189.195 312.625 183.5C312.625 177.805 307.868 173.187 302 173.188L302 167Z" fill="#33FF00"/>
<path fill-rule="evenodd" clip-rule="evenodd" d="M267 0C285.225 -1.59332e-06 300 14.9985 300 33.5C300 52.0015 285.225 67 267 67L267 54.4375C278.391 54.4375 287.625 45.0635 287.625 33.5C287.625 21.9365 278.391 12.5625 267 12.5625L267 0Z" fill="white"/>
<path fill-rule="evenodd" clip-rule="evenodd" d="M313 200C331.225 200 346 214.998 346 233.5C346 252.002 331.225 267 313 267L313 254.438C324.391 254.437 333.625 245.063 333.625 233.5C333.625 221.937 324.391 212.562 313 212.562L313 200Z" fill="white"/>
<path fill-rule="evenodd" clip-rule="evenodd" d="M219 267C237.225 267 252 281.775 252 300C252 318.225 237.225 333 219 333L219 320.625C230.391 320.625 239.625 311.391 239.625 300C239.625 288.609 230.391 279.375 219 279.375L219 267Z" fill="white"/>
<path fill-rule="evenodd" clip-rule="evenodd" d="M321 267C339.225 267 354 281.775 354 300C354 318.225 339.225 333 321 333L321 320.625C332.391 320.625 341.625 311.391 341.625 300C341.625 288.609 332.391 279.375 321 279.375L321 267Z" fill="white"/>
<path d="M187 200L187 233L193 233L193 200L187 200Z" fill="#33FF00"/>
<path d="M336 67L336 100L343 100L343 67L336 67Z" fill="#33FF00"/>
<path d="M336 133L336 167L343 167L343 133L336 133Z" fill="#33FF00"/>
<path d="M276 333L276 367L283 367L283 333L276 333Z" fill="#33FF00"/>
<path d="M327 333L327 367L334 367L334 333L327 333Z" fill="#33FF00"/>
<path d="M286 67L286 100L292 100L292 67L286 67Z" fill="#33FF00"/>
<path d="M232 233L232 267L226 267L226 233L232 233Z" fill="#33FF00"/>
<path d="M232 167L232 200L226 200L226 167L232 167Z" fill="#33FF00"/>
<path d="M280 167L280 200L273 200L273 167L280 167Z" fill="#33FF00"/>
<path d="M331 100L331 133L325 133L325 100L331 100Z" fill="#33FF00"/>
<path d="M331 167L331 200L325 200L325 167L331 167Z" fill="#33FF00"/>
<path d="M325 -5.68248e-07L325 67L312 67L312 0L325 -5.68248e-07Z" fill="white"/>
<path d="M277 267L277 333L265 333L265 267L277 267Z" fill="white"/>
</g>
<defs>
<clipPath id="clip0">
<rect width="340" height="354.167" fill="white"/>
</clipPath>
</defs>
</svg>
